<svg version="1.1" id="Layer_1" xmlns="http://www.w3.org/2000/svg" xmlns:xlink="http://www.w3.org/1999/xlink" x="0px" y="0px"
	 width="100%" viewBox="0 0 800 800" enable-background="new 0 0 800 800" xml:space="preserve">
<path fill="#000000" opacity="1.000000" stroke="none" 
	d="
M479.000000,801.000000 
	C319.333344,801.000000 160.166672,801.000000 1.000000,801.000000 
	C1.000000,534.333313 1.000000,267.666656 1.000000,1.000000 
	C267.666656,1.000000 534.333313,1.000000 801.000000,1.000000 
	C801.000000,267.666656 801.000000,534.333313 801.000000,801.000000 
	C693.833313,801.000000 586.666687,801.000000 479.000000,801.000000 
M603.439819,659.070190 
	C627.306213,683.019836 651.183960,706.958252 675.016052,730.942017 
	C676.778625,732.715820 678.036011,732.993652 679.958069,731.058533 
	C696.858826,714.044128 713.808472,697.077759 730.841370,680.195740 
	C732.906494,678.148926 732.880310,676.885315 730.834229,674.916870 
	C724.833740,669.144104 718.990601,663.207520 713.101685,657.319214 
	C680.474487,624.695679 647.851196,592.068237 615.228149,559.440552 
	C585.549133,529.757202 555.901306,500.042389 526.108032,470.474152 
	C524.607178,468.984619 521.910828,468.340607 519.672546,468.042175 
	C516.729492,467.649750 513.629761,467.618896 510.700226,468.082458 
	C499.012970,469.931915 489.913055,466.224152 482.439911,456.917664 
	C479.555084,453.325104 479.200043,451.049896 481.968475,447.694427 
	C486.241364,442.515503 491.123199,437.624512 494.339569,431.830292 
	C502.602295,416.945221 510.207458,401.688660 517.815674,386.450897 
	C519.976501,382.123138 521.671265,377.455566 522.835022,372.759277 
	C525.284729,362.873596 527.555664,352.920929 529.315552,342.893188 
	C531.230286,331.983307 533.208313,320.996277 533.803040,309.969757 
	C534.314148,300.494659 533.119629,290.899017 532.304504,281.388824 
	C531.469421,271.645996 531.233582,261.674225 528.846802,252.282639 
	C525.021484,237.230682 520.710632,222.119873 514.661072,207.858566 
	C505.814941,187.004654 494.396820,167.199310 479.123352,150.395676 
	C463.501953,133.209244 447.425964,116.135498 426.380951,105.069229 
	C413.190613,98.133240 400.365662,90.350075 386.713287,84.493660 
	C375.903931,79.856834 364.146759,77.338043 352.690277,74.337692 
	C346.416077,72.694550 339.902802,71.940750 333.479156,70.897972 
	C325.566040,69.613426 317.640228,67.524025 309.708496,67.470512 
	C300.664124,67.409485 291.678528,67.253922 282.394745,68.974487 
	C269.182587,71.423088 255.505447,71.800339 242.500000,75.799110 
	C230.844650,79.382759 218.945908,82.543076 207.833374,87.432877 
	C193.146576,93.895432 178.613663,100.963310 166.021866,111.284431 
	C158.540039,117.417061 150.468170,122.905006 143.476990,129.541763 
	C134.970184,137.617340 126.728943,146.127731 119.460617,155.310974 
	C111.569366,165.281250 104.214005,175.835953 97.947258,186.885757 
	C91.914108,197.523666 87.119087,208.942093 82.629189,220.351746 
	C79.145233,229.205109 76.614258,238.485550 74.329872,247.741547 
	C72.664902,254.487762 72.018066,261.493134 71.049698,268.401489 
	C69.706390,277.984619 68.395302,287.574371 67.269714,297.184662 
	C66.923256,300.142670 67.027565,303.193634 67.274063,306.173187 
	C67.952187,314.369965 68.374260,322.624634 69.719193,330.719940 
	C71.308762,340.287659 73.262657,349.856079 75.958122,359.163727 
	C79.514984,371.445801 83.164734,383.812897 88.228951,395.513947 
	C92.960167,406.445557 99.537308,416.585297 105.401649,427.017517 
	C111.696800,438.216095 119.261093,448.502655 128.474197,457.472900 
	C137.133041,465.903503 145.566666,474.660736 154.937195,482.238220 
	C164.304474,489.813049 174.372284,496.677948 184.759415,502.789459 
	C194.357361,508.436554 204.715591,512.825745 214.878006,517.464355 
	C219.749725,519.688049 224.832977,521.641296 230.013870,522.952820 
	C239.618423,525.384216 249.331711,527.427795 259.063904,529.299133 
	C265.927185,530.618774 272.892944,531.412659 279.821198,532.382080 
	C281.292450,532.587952 282.799744,532.535583 284.290314,532.604431 
	C294.510681,533.076355 304.774689,534.348999 314.939056,533.794739 
	C324.974426,533.247559 334.932434,530.984924 344.879547,529.221985 
	C351.272400,528.088928 357.719543,526.933777 363.900757,525.011719 
	C373.224701,522.112427 382.390808,518.675232 391.528900,515.215454 
	C409.478790,508.419281 425.974579,499.057404 440.954895,486.995575 
	C443.941589,484.590790 447.549713,482.957825 450.871307,480.968964 
	C456.562103,486.814514 462.279694,492.634674 467.889008,498.557404 
	C468.304504,498.996124 467.937988,500.171875 467.941589,501.004944 
	C467.968231,507.168701 467.712158,513.353333 468.161835,519.486145 
	C468.346558,522.005554 469.425537,525.038696 471.159912,526.780518 
	C514.991577,570.799927 558.964783,614.678528 603.439819,659.070190 
z"/>
<path fill="#FDFDFD" opacity="1.000000" stroke="none" 
	d="
M603.176514,658.825989 
	C558.964783,614.678528 514.991577,570.799927 471.159912,526.780518 
	C469.425537,525.038696 468.346558,522.005554 468.161835,519.486145 
	C467.712158,513.353333 467.968231,507.168701 467.941589,501.004944 
	C467.937988,500.171875 468.304504,498.996124 467.889008,498.557404 
	C462.279694,492.634674 456.562103,486.814514 450.871307,480.968964 
	C447.549713,482.957825 443.941589,484.590790 440.954895,486.995575 
	C425.974579,499.057404 409.478790,508.419281 391.528900,515.215454 
	C382.390808,518.675232 373.224701,522.112427 363.900757,525.011719 
	C357.719543,526.933777 351.272400,528.088928 344.879547,529.221985 
	C334.932434,530.984924 324.974426,533.247559 314.939056,533.794739 
	C304.774689,534.348999 294.510681,533.076355 284.290314,532.604431 
	C282.799744,532.535583 281.292450,532.587952 279.821198,532.382080 
	C272.892944,531.412659 265.927185,530.618774 259.063904,529.299133 
	C249.331711,527.427795 239.618423,525.384216 230.013870,522.952820 
	C224.832977,521.641296 219.749725,519.688049 214.878006,517.464355 
	C204.715591,512.825745 194.357361,508.436554 184.759415,502.789459 
	C174.372284,496.677948 164.304474,489.813049 154.937195,482.238220 
	C145.566666,474.660736 137.133041,465.903503 128.474197,457.472900 
	C119.261093,448.502655 111.696800,438.216095 105.401649,427.017517 
	C99.537308,416.585297 92.960167,406.445557 88.228951,395.513947 
	C83.164734,383.812897 79.514984,371.445801 75.958122,359.163727 
	C73.262657,349.856079 71.308762,340.287659 69.719193,330.719940 
	C68.374260,322.624634 67.952187,314.369965 67.274063,306.173187 
	C67.027565,303.193634 66.923256,300.142670 67.269714,297.184662 
	C68.395302,287.574371 69.706390,277.984619 71.049698,268.401489 
	C72.018066,261.493134 72.664902,254.487762 74.329872,247.741547 
	C76.614258,238.485550 79.145233,229.205109 82.629189,220.351746 
	C87.119087,208.942093 91.914108,197.523666 97.947258,186.885757 
	C104.214005,175.835953 111.569366,165.281250 119.460617,155.310974 
	C126.728943,146.127731 134.970184,137.617340 143.476990,129.541763 
	C150.468170,122.905006 158.540039,117.417061 166.021866,111.284431 
	C178.613663,100.963310 193.146576,93.895432 207.833374,87.432877 
	C218.945908,82.543076 230.844650,79.382759 242.500000,75.799110 
	C255.505447,71.800339 269.182587,71.423088 282.394745,68.974487 
	C291.678528,67.253922 300.664124,67.409485 309.708496,67.470512 
	C317.640228,67.524025 325.566040,69.613426 333.479156,70.897972 
	C339.902802,71.940750 346.416077,72.694550 352.690277,74.337692 
	C364.146759,77.338043 375.903931,79.856834 386.713287,84.493660 
	C400.365662,90.350075 413.190613,98.133240 426.380951,105.069229 
	C447.425964,116.135498 463.501953,133.209244 479.123352,150.395676 
	C494.396820,167.199310 505.814941,187.004654 514.661072,207.858566 
	C520.710632,222.119873 525.021484,237.230682 528.846802,252.282639 
	C531.233582,261.674225 531.469421,271.645996 532.304504,281.388824 
	C533.119629,290.899017 534.314148,300.494659 533.803040,309.969757 
	C533.208313,320.996277 531.230286,331.983307 529.315552,342.893188 
	C527.555664,352.920929 525.284729,362.873596 522.835022,372.759277 
	C521.671265,377.455566 519.976501,382.123138 517.815674,386.450897 
	C510.207458,401.688660 502.602295,416.945221 494.339569,431.830292 
	C491.123199,437.624512 486.241364,442.515503 481.968475,447.694427 
	C479.200043,451.049896 479.555084,453.325104 482.439911,456.917664 
	C489.913055,466.224152 499.012970,469.931915 510.700226,468.082458 
	C513.629761,467.618896 516.729492,467.649750 519.672546,468.042175 
	C521.910828,468.340607 524.607178,468.984619 526.108032,470.474152 
	C555.901306,500.042389 585.549133,529.757202 615.228149,559.440552 
	C647.851196,592.068237 680.474487,624.695679 713.101685,657.319214 
	C718.990601,663.207520 724.833740,669.144104 730.834229,674.916870 
	C732.880310,676.885315 732.906494,678.148926 730.841370,680.195740 
	C713.808472,697.077759 696.858826,714.044128 679.958069,731.058533 
	C678.036011,732.993652 676.778625,732.715820 675.016052,730.942017 
	C651.183960,706.958252 627.306213,683.019836 603.176514,658.825989 
M396.044800,162.163132 
	C394.950226,161.617691 393.855682,161.072250 392.270050,160.249252 
	C391.966919,160.026886 391.663788,159.804535 391.253052,158.897156 
	C383.063812,154.631943 374.883057,150.350128 366.662628,146.145966 
	C366.205292,145.912094 365.419373,146.320694 364.153564,146.047165 
	C357.823364,143.971024 351.598236,141.450806 345.138428,139.922379 
	C335.352051,137.606857 325.462311,134.851852 315.508270,134.323761 
	C300.084381,133.505493 284.486328,132.853943 269.249146,137.061554 
	C258.630493,139.993790 247.467926,141.508850 237.370193,145.657425 
	C217.652054,153.758423 199.652039,165.057098 184.180222,179.944046 
	C180.153076,183.818970 176.483566,188.129501 173.069595,192.563248 
	C167.575500,199.698471 161.717621,206.697800 157.297501,214.483536 
	C149.820526,227.653717 142.558426,241.003510 140.177124,256.413788 
	C138.655060,266.263580 134.763504,275.886261 134.275681,285.726837 
	C133.359070,304.217468 133.068924,322.883240 138.730621,340.944305 
	C141.544434,349.920532 143.681747,359.176941 147.282532,367.824677 
	C155.777924,388.227478 168.072342,406.240112 183.854416,421.775757 
	C186.534180,424.413635 189.501724,426.795898 192.527557,429.038208 
	C199.897522,434.499756 206.955460,440.570465 214.912659,445.009003 
	C228.031967,452.327057 241.584610,458.791351 256.446136,462.326263 
	C268.465485,465.185150 280.437714,467.736511 292.814514,467.910645 
	C296.461182,467.961945 300.209778,467.064941 303.744293,467.636780 
	C315.289124,469.504608 326.386719,466.419647 337.431335,464.447510 
	C346.587616,462.812592 355.367096,458.944580 364.234039,455.838989 
	C379.705231,450.420349 393.772339,442.281525 406.324554,431.890472 
	C414.002747,425.534271 421.106598,418.291809 427.517548,410.649750 
	C434.335327,402.522766 440.464111,393.726227 446.111450,384.730927 
	C454.055328,372.077637 459.404785,358.145660 463.054291,343.701874 
	C465.318359,334.741364 467.415558,325.526917 467.803772,316.350952 
	C468.486633,300.209900 468.812897,283.948395 465.303864,267.448547 
	C464.721497,265.829742 464.139099,264.210938 463.514801,262.060699 
	C463.447357,261.712189 463.379913,261.363708 463.718994,260.406677 
	C462.058380,255.280136 460.397797,250.153610 458.723816,244.412262 
	C458.683777,244.005310 458.643738,243.598358 458.927399,242.611557 
	C458.362427,241.999451 457.797485,241.387344 457.169678,240.363541 
	C457.169678,240.363541 457.046021,239.965866 457.216248,239.353180 
	C456.660919,238.766525 456.105621,238.179871 455.573669,237.060501 
	C455.553192,236.705933 455.532715,236.351364 455.884796,235.460907 
	C453.181244,230.314484 450.477692,225.168076 447.708893,219.469971 
	C447.401855,219.025742 447.094818,218.581512 446.836060,217.398148 
	C445.522858,215.313889 444.209656,213.229614 442.495758,210.674286 
	C442.158875,210.191238 441.821991,209.708191 441.820984,208.575836 
	C438.630859,204.315628 435.440735,200.055435 432.133911,195.857651 
	C432.133911,195.857651 432.206360,195.746902 432.152283,195.081131 
	C430.501953,193.651001 428.851624,192.220856 426.853516,190.373825 
	C426.554901,189.925400 426.256317,189.476959 426.151825,188.325333 
	C423.101685,185.216324 420.051544,182.107315 417.000000,179.000000 
	C417.000000,179.000000 417.001648,178.998505 416.935608,178.320389 
	C415.028564,177.133835 413.121552,175.947266 410.857727,174.326141 
	C410.310272,173.815536 409.762787,173.304916 409.179138,172.169128 
	C408.537567,171.710190 407.895966,171.251251 407.144653,170.848541 
	C407.144653,170.848541 407.207458,170.742462 407.129730,170.066498 
	C405.059418,168.747650 402.989075,167.428818 400.658447,165.684448 
	C400.440643,165.423065 400.173981,165.228699 399.839844,164.414642 
	C398.607819,163.893646 397.375763,163.372635 396.001221,162.997559 
	C396.001221,162.997559 396.138092,162.846176 396.044800,162.163132 
z"/>
<path fill="#010101" opacity="1.000000" stroke="none" 
	d="
M455.512238,235.996796 
	C455.532715,236.351364 455.553192,236.705933 455.415161,237.663025 
	C455.853119,238.832336 456.449554,239.399109 457.046021,239.965866 
	C457.046021,239.965866 457.169678,240.363541 457.122803,240.874115 
	C457.585175,241.986923 458.094452,242.589157 458.603699,243.191406 
	C458.643738,243.598358 458.683777,244.005310 458.502319,244.952576 
	C459.958038,250.666992 461.635254,255.841095 463.312439,261.015198 
	C463.379913,261.363708 463.447357,261.712189 463.404114,262.674835 
	C463.870911,264.859894 464.448425,266.430847 465.025940,268.001770 
	C468.812897,283.948395 468.486633,300.209900 467.803772,316.350952 
	C467.415558,325.526917 465.318359,334.741364 463.054291,343.701874 
	C459.404785,358.145660 454.055328,372.077637 446.111450,384.730927 
	C440.464111,393.726227 434.335327,402.522766 427.517548,410.649750 
	C421.106598,418.291809 414.002747,425.534271 406.324554,431.890472 
	C393.772339,442.281525 379.705231,450.420349 364.234039,455.838989 
	C355.367096,458.944580 346.587616,462.812592 337.431335,464.447510 
	C326.386719,466.419647 315.289124,469.504608 303.744293,467.636780 
	C300.209778,467.064941 296.461182,467.961945 292.814514,467.910645 
	C280.437714,467.736511 268.465485,465.185150 256.446136,462.326263 
	C241.584610,458.791351 228.031967,452.327057 214.912659,445.009003 
	C206.955460,440.570465 199.897522,434.499756 192.527557,429.038208 
	C189.501724,426.795898 186.534180,424.413635 183.854416,421.775757 
	C168.072342,406.240112 155.777924,388.227478 147.282532,367.824677 
	C143.681747,359.176941 141.544434,349.920532 138.730621,340.944305 
	C133.068924,322.883240 133.359070,304.217468 134.275681,285.726837 
	C134.763504,275.886261 138.655060,266.263580 140.177124,256.413788 
	C142.558426,241.003510 149.820526,227.653717 157.297501,214.483536 
	C161.717621,206.697800 167.575500,199.698471 173.069595,192.563248 
	C176.483566,188.129501 180.153076,183.818970 184.180222,179.944046 
	C199.652039,165.057098 217.652054,153.758423 237.370193,145.657425 
	C247.467926,141.508850 258.630493,139.993790 269.249146,137.061554 
	C284.486328,132.853943 300.084381,133.505493 315.508270,134.323761 
	C325.462311,134.851852 335.352051,137.606857 345.138428,139.922379 
	C351.598236,141.450806 357.823364,143.971024 364.576111,146.559662 
	C371.047577,149.958664 377.093750,152.850876 383.146576,155.729095 
	C385.877777,157.027817 388.622223,158.298676 391.360657,159.582169 
	C391.663788,159.804535 391.966919,160.026886 392.647125,160.672943 
	C394.062164,161.679825 395.100128,162.263000 396.138092,162.846176 
	C396.138092,162.846176 396.001221,162.997559 396.128540,163.260071 
	C397.456726,164.048828 398.657623,164.575089 399.858521,165.101349 
	C400.173981,165.228699 400.440643,165.423065 400.779907,166.247620 
	C403.003418,168.121338 405.105438,169.431900 407.207458,170.742462 
	C407.207458,170.742462 407.144653,170.848541 407.182220,171.151566 
	C407.884979,171.901169 408.550140,172.347733 409.215332,172.794312 
	C409.762787,173.304916 410.310272,173.815536 411.061768,174.886185 
	C413.177734,176.630325 415.089691,177.814407 417.001648,178.998505 
	C417.001648,178.998505 417.000000,179.000000 417.002167,179.344101 
	C419.988800,182.801651 422.973236,185.915100 425.957703,189.028534 
	C426.256317,189.476959 426.554901,189.925400 427.022095,190.931396 
	C428.862579,192.908295 430.534485,194.327606 432.206360,195.746902 
	C432.206360,195.746902 432.133911,195.857651 432.170410,196.187897 
	C435.299622,200.753815 438.392334,204.989471 441.485077,209.225143 
	C441.821991,209.708191 442.158875,210.191238 442.695343,211.270187 
	C444.192566,213.956482 445.490173,216.046875 446.787811,218.137268 
	C447.094818,218.581512 447.401855,219.025742 447.526733,219.971649 
	C450.067108,225.647812 452.789673,230.822311 455.512238,235.996796 
z"/>
<path fill="#666666" opacity="1.000000" stroke="none" 
	d="
M391.306854,159.239655 
	C388.622223,158.298676 385.877777,157.027817 383.146576,155.729095 
	C377.093750,152.850876 371.047577,149.958664 364.892548,146.751205 
	C365.419373,146.320694 366.205292,145.912094 366.662628,146.145966 
	C374.883057,150.350128 383.063812,154.631943 391.306854,159.239655 
z"/>
<path fill="#666666" opacity="1.000000" stroke="none" 
	d="
M455.698517,235.728851 
	C452.789673,230.822311 450.067108,225.647812 447.559326,220.247498 
	C450.477692,225.168076 453.181244,230.314484 455.698517,235.728851 
z"/>
<path fill="#666666" opacity="1.000000" stroke="none" 
	d="
M463.515747,260.710938 
	C461.635254,255.841095 459.958038,250.666992 458.509003,245.259979 
	C460.397797,250.153610 462.058380,255.280136 463.515747,260.710938 
z"/>
<path fill="#666666" opacity="1.000000" stroke="none" 
	d="
M441.653015,208.900482 
	C438.392334,204.989471 435.299622,200.753815 432.228760,196.156693 
	C435.440735,200.055435 438.630859,204.315628 441.653015,208.900482 
z"/>
<path fill="#666666" opacity="1.000000" stroke="none" 
	d="
M426.054749,188.676941 
	C422.973236,185.915100 419.988800,182.801651 417.002869,179.343262 
	C420.051544,182.107315 423.101685,185.216324 426.054749,188.676941 
z"/>
<path fill="#666666" opacity="1.000000" stroke="none" 
	d="
M446.811951,217.767700 
	C445.490173,216.046875 444.192566,213.956482 442.895691,211.505707 
	C444.209656,213.229614 445.522858,215.313889 446.811951,217.767700 
z"/>
<path fill="#666666" opacity="1.000000" stroke="none" 
	d="
M407.168579,170.404480 
	C405.105438,169.431900 403.003418,168.121338 400.910095,166.460373 
	C402.989075,167.428818 405.059418,168.747650 407.168579,170.404480 
z"/>
<path fill="#666666" opacity="1.000000" stroke="none" 
	d="
M416.968628,178.659439 
	C415.089691,177.814407 413.177734,176.630325 411.240143,175.103470 
	C413.121552,175.947266 415.028564,177.133835 416.968628,178.659439 
z"/>
<path fill="#666666" opacity="1.000000" stroke="none" 
	d="
M432.179321,195.414017 
	C430.534485,194.327606 428.862579,192.908295 427.195984,191.139847 
	C428.851624,192.220856 430.501953,193.651001 432.179321,195.414017 
z"/>
<path fill="#666666" opacity="1.000000" stroke="none" 
	d="
M465.164917,267.725159 
	C464.448425,266.430847 463.870911,264.859894 463.425049,262.940552 
	C464.139099,264.210938 464.721497,265.829742 465.164917,267.725159 
z"/>
<path fill="#666666" opacity="1.000000" stroke="none" 
	d="
M399.849182,164.757996 
	C398.657623,164.575089 397.456726,164.048828 396.199768,163.187103 
	C397.375763,163.372635 398.607819,163.893646 399.849182,164.757996 
z"/>
<path fill="#666666" opacity="1.000000" stroke="none" 
	d="
M396.091431,162.504654 
	C395.100128,162.263000 394.062164,161.679825 392.892639,160.811737 
	C393.855682,161.072250 394.950226,161.617691 396.091431,162.504654 
z"/>
<path fill="#666666" opacity="1.000000" stroke="none" 
	d="
M409.197235,172.481720 
	C408.550140,172.347733 407.884979,171.901169 407.237061,171.123444 
	C407.895966,171.251251 408.537567,171.710190 409.197235,172.481720 
z"/>
<path fill="#666666" opacity="1.000000" stroke="none" 
	d="
M457.131134,239.659515 
	C456.449554,239.399109 455.853119,238.832336 455.403503,237.929382 
	C456.105621,238.179871 456.660919,238.766525 457.131134,239.659515 
z"/>
<path fill="#666666" opacity="1.000000" stroke="none" 
	d="
M458.765564,242.901489 
	C458.094452,242.589157 457.585175,241.986923 457.154236,241.079956 
	C457.797485,241.387344 458.362427,241.999451 458.765564,242.901489 
z"/>
</svg>