<?xml version="1.0" encoding="UTF-8"?>
<svg version="1.1" xmlns="http://www.w3.org/2000/svg" width="800" height="800">
<path d="M0 0 C1.62318683 0.3623859 3.24810234 0.71715522 4.875 1.0625 C12.49142655 2.76725973 19.62088923 5.30814018 26.87036133 8.17553711 C28.53583594 8.82030471 30.20925626 9.44455694 31.88549805 10.06079102 C39.74048824 12.98353701 47.15360368 16.40149695 54.5625 20.3125 C55.6558667 20.88645508 56.7492334 21.46041016 57.87573242 22.05175781 C65.24999397 25.96690452 72.28758997 30.01685414 79 35 C80.03125 35.76183594 81.0625 36.52367187 82.125 37.30859375 C84.18592948 38.84671391 86.2398527 40.39428655 88.28515625 41.953125 C90.57187955 43.67721566 92.88712339 45.32104518 95.25 46.9375 C96.1575 47.618125 97.065 48.29875 98 49 C98 49.66 98 50.32 98 51 C98.55864746 51.23485107 99.11729492 51.46970215 99.69287109 51.71166992 C104.17968416 54.21716331 107.56201683 58.22991475 111.1640625 61.84838867 C112.61860551 63.30609162 114.08596154 64.74996476 115.5546875 66.19335938 C116.47765625 67.11568359 117.400625 68.03800781 118.3515625 68.98828125 C119.19541504 69.82915283 120.03926758 70.67002441 120.90869141 71.53637695 C122.98156375 73.97828156 124.01827327 75.97407904 125 79 C125.66 79 126.32 79 127 79 C128.6537041 80.90160855 130.17881802 82.80008072 131.6875 84.8125 C132.13085693 85.39765381 132.57421387 85.98280762 133.03100586 86.58569336 C143.89456836 101.09071731 143.89456836 101.09071731 145 107 C145.66 107 146.32 107 147 107 C147.24121582 107.51272461 147.48243164 108.02544922 147.73095703 108.55371094 C148.8608399 110.95316738 149.99263779 113.35171261 151.125 115.75 C151.53588867 116.62092285 151.94677734 117.4918457 152.37011719 118.38916016 C154.59503637 123.08901881 156.86960969 127.75130992 159.25 132.375 C163.93355109 141.71622622 167.22688964 151.19432924 169.6171875 161.33886719 C170.43815238 164.81955641 171.35005522 168.15964468 172.625 171.5 C174.37608277 176.3820949 174.80919589 181.46395849 175.35400391 186.59375 C175.71132617 190.41966368 175.71132617 190.41966368 177 194 C177.20715337 196.48296326 177.37365766 198.95042768 177.5 201.4375 C177.75598272 206.79429751 177.75598272 206.79429751 179 212 C179.20884256 216.47976067 179.18579285 220.96247461 179.18530273 225.4465332 C179.18744802 227.63448798 179.20548948 229.82190292 179.22460938 232.00976562 C179.32138347 256.35723306 179.32138347 256.35723306 176 263 C175.78836799 264.69934219 175.58142729 266.39947371 175.40454102 268.1027832 C174.47170566 277.06282943 172.50310908 285.33689592 170 294 C169.51985182 295.89558499 169.04060035 297.79139748 168.5625 299.6875 C166.90991467 305.69690121 164.49818047 311.3003979 162 317 C161.41937074 318.36797995 160.84000969 319.73649867 160.26171875 321.10546875 C159.65416797 322.52886881 159.04609924 323.95204791 158.4375 325.375 C158.15680664 326.04104248 157.87611328 326.70708496 157.58691406 327.39331055 C155.76965047 331.59190706 153.56348105 335.19409561 151 339 C150.68804687 339.78632813 150.37609375 340.57265625 150.0546875 341.3828125 C148.5276953 345.17201537 146.34424296 348.4557047 144.125 351.875 C143.64756348 352.61443848 143.17012695 353.35387695 142.67822266 354.11572266 C138.72788134 360.12254635 134.40247431 365.74784028 129.79736328 371.26513672 C127.65822645 373.83881922 126.06908133 375.79275602 125 379 C126.20683963 382.4227881 128.20255475 384.31277441 130.9375 386.625 C131.62714844 387.21539062 132.31679688 387.80578125 133.02734375 388.4140625 C135.11733437 390.14252273 135.11733437 390.14252273 138 392 C138 392.66 138 393.32 138 394 C138.83660156 393.97381592 139.67320312 393.94763184 140.53515625 393.9206543 C143.67359928 393.83485107 146.81143974 393.77247193 149.95068359 393.7253418 C151.96362253 393.68817173 153.97601837 393.6246003 155.98828125 393.56054688 C162.93238988 393.47330933 168.03767823 393.58092576 173.77734375 397.72192383 C175 399 175 399 175 401 C175.66 401 176.32 401 177 401 C178.515625 402.57421875 178.515625 402.57421875 180.25 404.6875 C182.41897174 407.24634889 184.40724173 409.33936811 187 411.5 C189.46252406 413.55210338 191.32346707 415.45214889 193.375 417.875 C196.3937791 421.42374254 199.64250683 424.45899075 203.203125 427.45703125 C204.8981002 428.91249908 206.51629545 430.32854272 208 432 C208 432.66 208 433.32 208 434 C208.66 434 209.32 434 210 434 C212.625 436.375 212.625 436.375 215 439 C215 439.66 215 440.32 215 441 C215.66 441 216.32 441 217 441 C218.515625 442.57421875 218.515625 442.57421875 220.25 444.6875 C222.50075728 447.35349133 224.70049545 449.71010091 227.4375 451.875 C228.283125 452.57625 229.12875 453.2775 230 454 C230 454.66 230 455.32 230 456 C230.66 456 231.32 456 232 456 C233.515625 457.57421875 233.515625 457.57421875 235.25 459.6875 C238.26948001 463.24797018 241.35370481 466.09953792 245 469 C246.875 470.6875 246.875 470.6875 248 472 C248 472.66 248 473.32 248 474 C248.66 474 249.32 474 250 474 C251.4453125 475.50390625 251.4453125 475.50390625 253.125 477.5625 C256.21428747 481.2052848 259.50299631 484.30532565 263.1328125 487.3984375 C265.5737971 489.49216906 267.82923886 491.62573001 270 494 C270 494.66 270 495.32 270 496 C270.66 496 271.32 496 272 496 C273.625 497.375 273.625 497.375 275 499 C275 499.66 275 500.32 275 501 C275.99 501.33 276.98 501.66 278 502 C279.19150188 503.4231828 280.3785862 504.85069043 281.52734375 506.30859375 C283.65238581 508.74929193 286.11466109 510.69649025 288.64453125 512.703125 C289.09183594 513.13109375 289.53914062 513.5590625 290 514 C290 514.66 290 515.32 290 516 C290.66 516 291.32 516 292 516 C293.41015625 517.43359375 293.41015625 517.43359375 295.0625 519.4375 C301.68811486 527.73060884 301.68811486 527.73060884 310 534 C310 534.66 310 535.32 310 536 C310.99 536.33 311.98 536.66 313 537 C313 537.66 313 538.32 313 539 C313.66 539 314.32 539 315 539 C315 539.66 315 540.32 315 541 C315.99 541.33 316.98 541.66 318 542 C318 542.66 318 543.32 318 544 C318.66 544 319.32 544 320 544 C320 544.66 320 545.32 320 546 C320.99 546.33 321.98 546.66 323 547 C323 547.66 323 548.32 323 549 C323.66 549 324.32 549 325 549 C325 549.66 325 550.32 325 551 C325.99 551.33 326.98 551.66 328 552 C328 552.66 328 553.32 328 554 C328.66 554 329.32 554 330 554 C330 554.66 330 555.32 330 556 C330.99 556.33 331.98 556.66 333 557 C333 557.66 333 558.32 333 559 C333.66 559 334.32 559 335 559 C335 559.66 335 560.32 335 561 C335.99 561.33 336.98 561.66 338 562 C338 562.66 338 563.32 338 564 C338.66 564 339.32 564 340 564 C340 564.66 340 565.32 340 566 C340.99 566.33 341.98 566.66 343 567 C343 567.66 343 568.32 343 569 C343.66 569 344.32 569 345 569 C345 569.66 345 570.32 345 571 C345.99 571.33 346.98 571.66 348 572 C348 572.66 348 573.32 348 574 C348.66 574 349.32 574 350 574 C350 574.66 350 575.32 350 576 C350.99 576.33 351.98 576.66 353 577 C353 577.66 353 578.32 353 579 C353.66 579 354.32 579 355 579 C355 579.66 355 580.32 355 581 C355.99 581.33 356.98 581.66 358 582 C358 582.66 358 583.32 358 584 C358.66 584 359.32 584 360 584 C360 584.66 360 585.32 360 586 C360.639375 586.268125 361.27875 586.53625 361.9375 586.8125 C364 588 364 588 365 591 C366.31872358 591.69511894 367.65493521 592.35733139 369 593 C371.10546875 594.76953125 371.10546875 594.76953125 373.1875 596.8125 C373.88230469 597.47894531 374.57710937 598.14539063 375.29296875 598.83203125 C377.30988258 601.39355797 378.06525863 602.72200906 378 606 C376.38940481 607.91737523 374.87196661 609.37220295 373 611 C371.79399868 612.18977708 370.59660906 613.38832311 369.40625 614.59375 C365.60416667 618.39583333 361.80208333 622.19791667 358 626 C357.22301758 626.77770752 356.44603516 627.55541504 355.64550781 628.35668945 C353.31648517 630.68377769 350.98314624 633.00637474 348.64752197 635.326828 C346.42870535 637.5322047 344.21260322 639.74030114 341.99658203 641.94848633 C340.82591188 643.11408369 339.65435235 644.27878845 338.48193359 645.44262695 C336.78248895 647.12999024 335.08625256 648.82052084 333.390625 650.51171875 C332.86462708 651.03255539 332.33862915 651.55339203 331.79669189 652.0900116 C329.05535707 654.78531423 329.05535707 654.78531423 327 658 C326.34 658 325.68 658 325 658 C325 658.66 325 659.32 325 660 C322.69 660 320.38 660 318 660 C318 659.34 318 658.68 318 658 C317.34 658 316.68 658 316 658 C316 657.34 316 656.68 316 656 C315.01 655.67 314.02 655.34 313 655 C311.52281189 653.50033569 311.52281189 653.50033569 309.92944336 651.55615234 C305.59929035 646.45656418 300.88766235 641.79865973 296.12890625 637.1015625 C294.72008913 635.70215191 293.31127759 634.30273564 291.90280819 632.90297508 C288.45967005 629.48266562 285.01092743 626.0680225 281.55981445 622.65576172 C279.60919463 620.72668722 277.66122578 618.79500604 275.71604919 616.86044312 C273.88959082 615.04436058 272.05901127 613.23241185 270.22401428 611.42495728 C268.99659767 610.2026088 268.99659767 610.2026088 267.74438477 608.95556641 C267.01937271 608.23801178 266.29436066 607.52045715 265.54737854 606.78115845 C264 605 264 605 264 603 C263.12628754 602.61328125 263.12628754 602.61328125 262.23492432 602.21875 C259.80936549 600.8960431 258.19485559 599.44871546 256.24121094 597.5 C255.16054352 596.42878906 255.16054352 596.42878906 254.05804443 595.3359375 C252.90782806 594.17964844 252.90782806 594.17964844 251.734375 593 C250.94097717 592.20851563 250.14757935 591.41703125 249.33013916 590.6015625 C247.65675946 588.92954263 245.98589819 587.25499903 244.31738281 585.578125 C241.75286403 583.00287602 239.17783011 580.43848948 236.6015625 577.875 C234.97852473 576.25064116 233.35610719 574.62566231 231.734375 573 C230.95946716 572.22914063 230.18455933 571.45828125 229.38616943 570.6640625 C228.67833313 569.94992187 227.97049683 569.23578125 227.24121094 568.5 C226.61373962 567.8709375 225.98626831 567.241875 225.33978271 566.59375 C224 565 224 565 224 563 C223.41752502 562.7421875 222.83505005 562.484375 222.23492432 562.21875 C219.80936549 560.8960431 218.19485559 559.44871546 216.24121094 557.5 C215.52076599 556.78585937 214.80032104 556.07171875 214.05804443 555.3359375 C213.29123352 554.56507813 212.52442261 553.79421875 211.734375 553 C210.94097717 552.20851563 210.14757935 551.41703125 209.33013916 550.6015625 C207.65675946 548.92954263 205.98589819 547.25499903 204.31738281 545.578125 C201.75286403 543.00287602 199.17783011 540.43848948 196.6015625 537.875 C194.97852473 536.25064116 193.35610719 534.62566231 191.734375 533 C190.95946716 532.22914063 190.18455933 531.45828125 189.38616943 530.6640625 C188.32441498 529.59285156 188.32441498 529.59285156 187.24121094 528.5 C186.61373962 527.8709375 185.98626831 527.241875 185.33978271 526.59375 C184 525 184 525 184 523 C183.11683105 522.60361328 183.11683105 522.60361328 182.21582031 522.19921875 C179.91927416 520.95631056 178.39166834 519.64993519 176.546875 517.8125 C175.928125 517.19632813 175.309375 516.58015625 174.671875 515.9453125 C174.03765625 515.30335938 173.4034375 514.66140625 172.75 514 C172.1003125 513.35804688 171.450625 512.71609375 170.78125 512.0546875 C170.16765625 511.43851563 169.5540625 510.82234375 168.921875 510.1875 C168.36081055 509.62417969 167.79974609 509.06085937 167.22167969 508.48046875 C166 507 166 507 166 505 C165.34 505 164.68 505 164 505 C164 504.34 164 503.68 164 503 C163.4112207 502.73574219 162.82244141 502.47148438 162.21582031 502.19921875 C159.91927416 500.95631056 158.39166834 499.64993519 156.546875 497.8125 C155.928125 497.19632813 155.309375 496.58015625 154.671875 495.9453125 C154.03765625 495.30335938 153.4034375 494.66140625 152.75 494 C152.1003125 493.35804688 151.450625 492.71609375 150.78125 492.0546875 C150.16765625 491.43851563 149.5540625 490.82234375 148.921875 490.1875 C148.36081055 489.62417969 147.79974609 489.06085938 147.22167969 488.48046875 C146 487 146 487 146 485 C145.34 485 144.68 485 144 485 C144 484.34 144 483.68 144 483 C143.19477905 482.68156128 143.19477905 482.68156128 142.37329102 482.35668945 C139.11090794 480.49175141 136.65387896 477.93924441 134.02734375 475.29296875 C133.46302139 474.73055984 132.89869904 474.16815094 132.317276 473.58869934 C131.12726972 472.40005141 129.93977483 471.20888458 128.75463867 470.01538086 C126.94731382 468.19737184 125.1296051 466.39024446 123.31054688 464.58398438 C122.15300423 463.42511968 120.99608238 462.2656345 119.83984375 461.10546875 C119.29915756 460.56883102 118.75847137 460.0321933 118.20140076 459.47929382 C113.39670246 454.61489858 110.65299469 451.1603282 110.55859375 444.21875 C110.53216797 443.12949219 110.50574219 442.04023437 110.47851562 440.91796875 C110.45821289 439.22607422 110.45821289 439.22607422 110.4375 437.5 C110.40294418 435.26027106 110.3602722 433.02064929 110.30859375 430.78125 C110.29010376 429.2972168 110.29010376 429.2972168 110.27124023 427.78320312 C109.98614132 424.8577957 109.21984755 422.66016046 108 420 C107.34 420 106.68 420 106 420 C106 419.34 106 418.68 106 418 C105.34 418 104.68 418 104 418 C103.03885609 416.89121049 102.1292946 415.73725649 101.25 414.5625 C99.2186552 412.1689395 98.05768176 411.02819997 95.1875 409.625 C90.89200646 410.13035218 88.93229347 412.0272461 85.671875 414.7734375 C67.32218587 430.06484511 46.39245809 441.02621503 24 449 C22.6438186 449.51244084 21.28835738 450.02679136 19.93359375 450.54296875 C10.33631715 454.15036512 0.60539363 456.42036293 -9.48999023 458.04882812 C-13.36170893 458.63088358 -13.36170893 458.63088358 -17 460 C-18.37486949 460.20612307 -19.7568308 460.36633467 -21.140625 460.5 C-21.96433594 460.5825 -22.78804688 460.665 -23.63671875 460.75 C-24.49910156 460.8325 -25.36148437 460.915 -26.25 461 C-27.9428806 461.1649077 -29.63559454 461.33153663 -31.328125 461.5 C-32.0799707 461.5721875 -32.83181641 461.644375 -33.60644531 461.71875 C-35.3719217 461.92619888 -37.12943101 462.20431484 -38.87866211 462.52075195 C-44.65220634 463.40721791 -50.48278959 463.18459241 -56.3125 463.1875 C-57.59318359 463.19974609 -58.87386719 463.21199219 -60.19335938 463.22460938 C-66.3760039 463.2341554 -72.04701732 463.04183673 -78.03491211 461.4699707 C-82.37784456 460.43131435 -86.90820855 460.53005415 -91.3515625 460.34375 C-95.12817613 459.98792345 -98.37901395 459.1068696 -102 458 C-104.12125599 457.54469319 -106.24647896 457.10753502 -108.375 456.6875 C-120.46762153 454.11733602 -131.97034447 450.82798062 -143.11328125 445.38671875 C-145.59516915 444.19447219 -148.04347772 443.19641006 -150.625 442.25 C-163.01111175 437.40502339 -175.04072745 430.48351621 -186 423 C-186.85851562 422.41476562 -187.71703125 421.82953125 -188.6015625 421.2265625 C-191.08557848 419.50801368 -193.54675808 417.76213094 -196 416 C-196.79277344 415.43796875 -197.58554688 414.8759375 -198.40234375 414.296875 C-199.13582031 413.76578125 -199.86929688 413.2346875 -200.625 412.6875 C-201.27726562 412.21699219 -201.92953125 411.74648438 -202.6015625 411.26171875 C-203.06304687 410.84535156 -203.52453125 410.42898438 -204 410 C-204 409.34 -204 408.68 -204 408 C-205.2065625 407.5978125 -205.2065625 407.5978125 -206.4375 407.1875 C-207.283125 406.795625 -208.12875 406.40375 -209 406 C-209.495 404.515 -209.495 404.515 -210 403 C-211.3153341 402.29848848 -212.65117592 401.63474075 -214 401 C-215.75 399.5 -215.75 399.5 -217 398 C-217 397.34 -217 396.68 -217 396 C-217.57621094 395.75121094 -218.15242188 395.50242187 -218.74609375 395.24609375 C-221.32156712 393.82221852 -223.02011557 392.17571857 -225.0625 390.0625 C-226.06990234 389.02802734 -226.06990234 389.02802734 -227.09765625 387.97265625 C-227.72542969 387.32167969 -228.35320312 386.67070312 -229 386 C-229.86431641 385.19369141 -229.86431641 385.19369141 -230.74609375 384.37109375 C-232 383 -232 383 -232 381 C-232.66 381 -233.32 381 -234 381 C-235.19140625 379.671875 -235.19140625 379.671875 -236.5625 377.75 C-239.19850289 374.10363728 -241.89441488 370.51380177 -244.625 366.9375 C-247.78163998 362.73215993 -250.48167881 358.60244907 -253 354 C-253.91220002 352.70517504 -254.82938759 351.41385738 -255.75 350.125 C-259.55333767 344.50643299 -262.22591834 338.38733085 -265.03515625 332.234375 C-266.71371605 328.56638053 -268.55050082 325.00334018 -270.4375 321.4375 C-272.77998289 316.83506072 -273.80191245 313.15027642 -274 308 C-274.66 308 -275.32 308 -276 308 C-278.71310855 301.48853949 -280.36877156 294.79773797 -282.0234375 287.9609375 C-282.81040498 284.71912429 -283.69479806 281.5165289 -284.625 278.3125 C-288.87901084 262.86859107 -289.18678623 246.84629514 -289.18530273 230.9387207 C-289.18748148 228.33462979 -289.20568091 225.73096915 -289.22460938 223.12695312 C-289.27383869 208.67005865 -287.94702725 194.64310382 -285.1875 180.4375 C-285.01790771 179.55892334 -284.84831543 178.68034668 -284.67358398 177.77514648 C-283.03603641 169.63176656 -280.71358144 161.8420014 -278 154 C-277.60941406 152.83339844 -277.21882813 151.66679687 -276.81640625 150.46484375 C-272.50061307 137.91366817 -267.13729414 125.76550398 -261 114 C-260.34 114 -259.68 114 -259 114 C-258.9484375 113.35160156 -258.896875 112.70320313 -258.84375 112.03515625 C-257.60703855 107.58643036 -255.09752194 104.21776555 -252.5 100.4375 C-251.96117187 99.64190674 -251.42234375 98.84631348 -250.8671875 98.02661133 C-246.43959203 91.53407241 -241.83819464 85.19405967 -237 79 C-235.948125 77.60201172 -235.948125 77.60201172 -234.875 76.17578125 C-234.25625 75.45777344 -233.6375 74.73976563 -233 74 C-232.34 74 -231.68 74 -231 74 C-231 73.34 -231 72.68 -231 72 C-230.34 72 -229.68 72 -229 72 C-228.505 70.515 -228.505 70.515 -228 69 C-227.34 69 -226.68 69 -226 69 C-226 68.34 -226 67.68 -226 67 C-223.625 64.375 -223.625 64.375 -221 62 C-220.34 62 -219.68 62 -219 62 C-218.505 60.515 -218.505 60.515 -218 59 C-217.34 59 -216.68 59 -216 59 C-216 58.34 -216 57.68 -216 57 C-215.34 57 -214.68 57 -214 57 C-213.67 56.01 -213.34 55.02 -213 54 C-212.34 54 -211.68 54 -211 54 C-211 53.34 -211 52.68 -211 52 C-210.34 52 -209.68 52 -209 52 C-208.67 51.01 -208.34 50.02 -208 49 C-206.50390625 47.640625 -206.50390625 47.640625 -204.5625 46.25 C-203.84578125 45.73179688 -203.1290625 45.21359375 -202.390625 44.6796875 C-199.01707052 42.30937961 -195.63786408 39.94747052 -192.25 37.59765625 C-190.55910336 36.39700221 -188.92087079 35.12163902 -187.3125 33.8125 C-185.02156926 32.01690564 -182.66057238 30.58542206 -180.11328125 29.18359375 C-178.55221549 28.30928151 -177.01051978 27.40017555 -175.48046875 26.47265625 C-167.51891781 21.66958653 -159.29437881 17.69153175 -150.83984375 13.83984375 C-149.35757033 13.16322213 -147.88096594 12.47418882 -146.40625 11.78125 C-131.88480886 5.06237425 -116.36445401 0.4809306 -100.51171875 -1.60546875 C-98.01085203 -1.86832185 -98.01085203 -1.86832185 -96 -3 C-65.22174258 -8.94300171 -30.26931027 -8.15834396 0 0 Z M-66.25146484 62.05419922 C-68.64789394 62.12140716 -71.04221283 62.2129008 -73.4375 62.3125 C-74.53819824 62.34609619 -74.53819824 62.34609619 -75.66113281 62.38037109 C-80.22886769 62.60990029 -83.85498195 63.54962119 -88.07836914 65.28051758 C-90.99157821 66.37125918 -93.92726245 66.77140012 -97 67.1875 C-98.7015625 67.42533203 -98.7015625 67.42533203 -100.4375 67.66796875 C-101.283125 67.77753906 -102.12875 67.88710937 -103 68 C-103 68.66 -103 69.32 -103 70 C-103.70125 69.95875 -104.4025 69.9175 -105.125 69.875 C-108.40403004 70.01756652 -110.92330613 70.88715328 -114 72 C-115.32911682 72.34976758 -116.66082739 72.69096017 -118 73 C-118 73.66 -118 74.32 -118 75 C-118.73283203 75.12455566 -119.46566406 75.24911133 -120.22070312 75.37744141 C-122.88723258 75.97474026 -125.01138671 76.78644662 -127.46875 77.9609375 C-128.28730469 78.35023438 -129.10585937 78.73953125 -129.94921875 79.140625 C-130.79097656 79.54796875 -131.63273437 79.9553125 -132.5 80.375 C-133.34175781 80.77460938 -134.18351562 81.17421875 -135.05078125 81.5859375 C-141.20917029 84.46903337 -141.20917029 84.46903337 -147 88 C-147 88.66 -147 89.32 -147 90 C-147.5775 90.12375 -148.155 90.2475 -148.75 90.375 C-153.7660326 91.76834239 -156.37767818 94.28479813 -160 98 C-160.99 98.66 -161.98 99.32 -163 100 C-163 100.66 -163 101.32 -163 102 C-163.85851562 102.38671875 -163.85851562 102.38671875 -164.734375 102.78125 C-167.21128995 104.11365942 -169.1341166 105.65056118 -171.25 107.5 C-171.95640625 108.1084375 -172.6628125 108.716875 -173.390625 109.34375 C-175.23229504 110.85416368 -175.23229504 110.85416368 -175 113 C-175.66 113 -176.32 113 -177 113 C-178.3302109 114.51227067 -179.59027591 116.08669024 -180.8125 117.6875 C-183.68862773 121.38686718 -186.68662875 124.68662875 -190 128 C-192.54514483 131.66311254 -192.54514483 131.66311254 -193 136 C-193.66 136 -194.32 136 -195 136 C-196.43836985 138.70787448 -197.87572092 141.41628161 -199.3125 144.125 C-199.71662109 144.88554687 -200.12074219 145.64609375 -200.53710938 146.4296875 C-205.1045439 154.39123887 -205.1045439 154.39123887 -208 163 C-208.66 163 -209.32 163 -210 163 C-210.13277344 163.63808594 -210.26554687 164.27617187 -210.40234375 164.93359375 C-210.57894531 165.75988281 -210.75554687 166.58617187 -210.9375 167.4375 C-211.11152344 168.26121094 -211.28554687 169.08492188 -211.46484375 169.93359375 C-212 172 -212 172 -213 173 C-213.04063832 174.66617115 -213.042721 176.33388095 -213 178 C-213.66 178 -214.32 178 -215 178 C-217.18997992 186.80378079 -217.18997992 186.80378079 -218.625 195.75 C-219 199 -219 199 -220 200 C-221.02671296 205.81160746 -221.14916955 211.70024695 -221.1328125 217.5859375 C-221.13376923 218.36836823 -221.13472595 219.15079895 -221.13571167 219.9569397 C-221.13638679 221.59889812 -221.13457957 223.24085933 -221.13037109 224.8828125 C-221.12502793 227.36204182 -221.13033153 229.84108881 -221.13671875 232.3203125 C-221.32538839 248.2784674 -221.32538839 248.2784674 -217.75 263.69140625 C-216.9141977 266.2641102 -216.48209873 268.76630454 -216.0625 271.4375 C-215.27015477 276.21843055 -213.83768823 280.37555942 -211.90234375 284.80859375 C-211.0566531 286.86241391 -210.47842163 288.83477219 -210 291 C-209.34 291 -208.68 291 -208 291 C-207.87625 291.70125 -207.7525 292.4025 -207.625 293.125 C-206.96161655 296.17656387 -206.02788045 299.05340938 -205 302 C-204.34 302 -203.68 302 -203 302 C-202.87625 302.721875 -202.7525 303.44375 -202.625 304.1875 C-202.0095069 306.95721894 -201.11555626 309.3970354 -200 312 C-199.34 312 -198.68 312 -198 312 C-197.5978125 313.07314453 -197.5978125 313.07314453 -197.1875 314.16796875 C-195.98268693 317.04128939 -194.58762888 319.63337626 -193 322.3125 C-192.2265625 323.63701172 -192.2265625 323.63701172 -191.4375 324.98828125 C-190.7259375 325.98408203 -190.7259375 325.98408203 -190 327 C-189.34 327 -188.68 327 -188 327 C-187.79375 327.680625 -187.5875 328.36125 -187.375 329.0625 C-185.57104973 332.91639375 -183.0989655 336.07787764 -180 339 C-179.34 339 -178.68 339 -178 339 C-177.79375 339.53625 -177.5875 340.0725 -177.375 340.625 C-175.46749574 343.91978009 -172.95180616 346.59363628 -170 349 C-169.34 349 -168.68 349 -168 349 C-168 349.66 -168 350.32 -168 351 C-164.28054101 354.91327696 -160.28139679 358.51460715 -155 360 C-155 360.66 -155 361.32 -155 362 C-153.5498595 363.36233884 -153.5498595 363.36233884 -151.6875 364.625 C-151.07261719 365.07101562 -150.45773438 365.51703125 -149.82421875 365.9765625 C-147.91255444 367.24464281 -147.91255444 367.24464281 -145 367 C-145 367.66 -145 368.32 -145 369 C-136.53095697 373.67339349 -128.08370828 377.99438594 -119.13671875 381.69140625 C-116.52182024 382.78230413 -113.98747354 383.95663845 -111.4375 385.1875 C-106.7919197 387.28018197 -101.96769109 388.28581579 -97 389.34375 C-94 390 -94 390 -90.375 391.125 C-86.33587161 392.17218144 -82.41304659 392.47651324 -78.2578125 392.75390625 C-76 393 -76 393 -75 394 C-71.97022196 394.08871273 -68.96332978 394.1151935 -65.93359375 394.09765625 C-65.02497086 394.0962413 -64.11634796 394.09482635 -63.18019104 394.09336853 C-60.26592779 394.08775193 -57.35174019 394.07519665 -54.4375 394.0625 C-52.46679798 394.05748714 -50.49609476 394.05292386 -48.52539062 394.04882812 C-43.68356441 394.03777711 -38.84179505 394.02050138 -34 394 C-34 393.34 -34 392.68 -34 392 C-33.03900391 392.03480469 -33.03900391 392.03480469 -32.05859375 392.0703125 C-26.59277455 392.18435344 -22.25418795 391.65409621 -17 390 C-14.33634213 389.57098608 -11.68482486 389.28261314 -9 389 C-9 388.34 -9 387.68 -9 387 C-7.89785156 387.05027344 -7.89785156 387.05027344 -6.7734375 387.1015625 C-3.92656317 386.99731076 -2.22029077 386.49507286 0.375 385.375 C1.22578125 385.01664062 2.0765625 384.65828125 2.953125 384.2890625 C3.95859375 383.86367188 4.9640625 383.43828125 6 383 C8.7040954 381.9060081 11.41464813 380.82838085 14.125 379.75 C15.44021225 379.22422862 16.75532508 378.69820845 18.0703125 378.171875 C19.03710938 377.78515625 20.00390625 377.3984375 21 377 C21 376.34 21 375.68 21 375 C21.86625 374.9175 22.7325 374.835 23.625 374.75 C27.49463402 373.89008133 29.79318338 372.28040293 33 370 C33.99 369.67 34.98 369.34 36 369 C36 368.34 36 367.68 36 367 C36.99 366.690625 36.99 366.690625 38 366.375 C42.07180186 364.50875748 45.68796998 362.02438473 49 359 C49 358.34 49 357.68 49 357 C49.66 357 50.32 357 51 357 C51 356.34 51 355.68 51 355 C51.53625 354.7525 52.0725 354.505 52.625 354.25 C58.7396583 351.03175879 62.73014751 347.3001118 67 342 C67.95830627 340.89580984 68.91663762 339.79164145 69.875 338.6875 C72.20674519 336.30954772 72.20674519 336.30954772 72 334 C72.66 334 73.32 334 74 334 C74 333.34 74 332.68 74 332 C74.66 332 75.32 332 76 332 C77.29090143 330.43581436 77.29090143 330.43581436 78.53125 328.38671875 C79.25248047 327.2565332 79.25248047 327.2565332 79.98828125 326.10351562 C80.48714844 325.30623047 80.98601562 324.50894531 81.5 323.6875 C81.99886719 322.90181641 82.49773437 322.11613281 83.01171875 321.30664062 C83.94274151 319.84021738 84.87077898 318.3718917 85.79492188 316.90112305 C86.8399953 315.25242232 87.91721264 313.62418105 89 312 C89 311.01 89 310.02 89 309 C89.66 309 90.32 309 91 309 C93.03435531 305.27034861 94 303.33094958 94 299 C94.66 299 95.32 299 96 299 C96.38671875 297.96101562 96.7734375 296.92203125 97.171875 295.8515625 C97.42227539 295.1810083 97.67267578 294.5104541 97.93066406 293.81958008 C98.48083341 292.34595903 99.02964288 290.87182962 99.57714844 289.3972168 C101.03722891 285.48518139 102.57492582 281.6385217 104.25 277.8125 C106.28024169 272.87589572 106.9469827 267.86388624 107.60546875 262.58984375 C108 260 108 260 109 259 C109.07244053 256.98035801 109.08377188 254.95832876 109.0625 252.9375 C109.04896484 251.28041016 109.04896484 251.28041016 109.03515625 249.58984375 C109.02355469 248.73519531 109.01195312 247.88054687 109 247 C109.66 247 110.32 247 111 247 C111.02464775 241.46411467 111.04283496 235.928261 111.05493164 230.39233398 C111.05997244 228.5075627 111.06680498 226.62279535 111.07543945 224.73803711 C111.08751617 222.03498364 111.09323068 219.33198169 111.09765625 216.62890625 C111.10539818 215.35703209 111.10539818 215.35703209 111.11329651 214.0594635 C111.11349195 212.03928932 111.06206211 210.01922066 111 208 C110.67 207.67 110.34 207.34 110 207 C109.83718662 205.4201072 109.72122021 203.83534259 109.625 202.25 C108.85464793 193.00577516 106.77956103 184.46621671 103 176 C101.59488025 171.68791149 100.28814746 167.34831503 99 163 C98.34 163 97.68 163 97 163 C96.9175 162.154375 96.835 161.30875 96.75 160.4375 C96.10027675 157.45960179 95.50825218 155.90514769 94 153.375 C92.42425564 150.71593139 91.47676548 148.97978425 91 146 C90.34 146 89.68 146 89 146 C88.896875 145.43410156 88.79375 144.86820312 88.6875 144.28515625 C87.87528398 141.58546095 86.62018491 139.73925308 85 137.4375 C83.19972845 134.87124752 81.99823137 132.99469411 81 130 C80.34 130 79.68 130 79 130 C79 129.34 79 128.68 79 128 C78.34 128 77.68 128 77 128 C76.731875 127.195625 76.46375 126.39125 76.1875 125.5625 C75.795625 124.716875 75.40375 123.87125 75 123 C74.01 122.67 73.02 122.34 72 122 C71.3125 119.9375 71.3125 119.9375 71 118 C70.34 118 69.68 118 69 118 C68 116 67 114 66 112 C65.34 112 64.68 112 64 112 C64 111.34 64 110.68 64 110 C63.34 110 62.68 110 62 110 C61.67 109.01 61.34 108.02 61 107 C58.94350929 105.17708054 58.94350929 105.17708054 56.5 103.4375 C52.10012516 100.20025031 52.10012516 100.20025031 51 98 C47.76651288 95.69963815 47.76651288 95.69963815 44 95 C44 94.34 44 93.68 44 93 C40.77885843 90.68407978 40.77885843 90.68407978 37 90 C37 89.34 37 88.68 37 88 C35.96101563 87.48050781 34.92203125 86.96101563 33.8515625 86.42578125 C33.18092773 86.0903833 32.51029297 85.75498535 31.81933594 85.40942383 C30.34628847 84.67306399 28.87297744 83.93723117 27.39941406 83.2019043 C24.30428878 81.65672462 21.21176545 80.10847931 18.1328125 78.53125 C6.62283725 72.1015086 6.62283725 72.1015086 -6 70 C-6 69.34 -6 68.68 -6 68 C-6.92683594 67.86722656 -7.85367188 67.73445313 -8.80859375 67.59765625 C-10.60490234 67.33275391 -10.60490234 67.33275391 -12.4375 67.0625 C-13.63246094 66.88847656 -14.82742188 66.71445313 -16.05859375 66.53515625 C-19 66 -19 66 -20 65 C-22.33297433 64.95907063 -24.66705225 64.95758277 -27 65 C-27 64.34 -27 63.68 -27 63 C-40.09850552 62.32505988 -53.13382633 61.73842002 -66.25146484 62.05419922 Z " fill="#FBFBFB" transform="translate(355,72)"/>
<path d="M0 0 C0.43570313 0.37511719 0.87140625 0.75023437 1.3203125 1.13671875 C1.91585937 1.64847656 2.51140625 2.16023437 3.125 2.6875 C4.07439453 3.50541016 4.07439453 3.50541016 5.04296875 4.33984375 C6.81640213 5.8442533 8.62132079 7.29792354 10.4375 8.75 C11.283125 9.4925 12.12875 10.235 13 11 C13 11.66 13 12.32 13 13 C13.66 13 14.32 13 15 13 C16.515625 14.57421875 16.515625 14.57421875 18.25 16.6875 C21.26948001 20.24797018 24.35370481 23.09953792 28 26 C29.875 27.6875 29.875 27.6875 31 29 C31 29.66 31 30.32 31 31 C31.66 31 32.32 31 33 31 C34.4453125 32.50390625 34.4453125 32.50390625 36.125 34.5625 C39.21428747 38.2052848 42.50299631 41.30532565 46.1328125 44.3984375 C48.5737971 46.49216906 50.82923886 48.62573001 53 51 C53 51.66 53 52.32 53 53 C53.66 53 54.32 53 55 53 C56.625 54.375 56.625 54.375 58 56 C58 56.66 58 57.32 58 58 C58.99 58.33 59.98 58.66 61 59 C62.19150188 60.4231828 63.3785862 61.85069043 64.52734375 63.30859375 C66.65238581 65.74929193 69.11466109 67.69649025 71.64453125 69.703125 C72.09183594 70.13109375 72.53914062 70.5590625 73 71 C73 71.66 73 72.32 73 73 C73.66 73 74.32 73 75 73 C76.41015625 74.43359375 76.41015625 74.43359375 78.0625 76.4375 C84.68811486 84.73060884 84.68811486 84.73060884 93 91 C93 91.66 93 92.32 93 93 C94.485 93.495 94.485 93.495 96 94 C96 94.66 96 95.32 96 96 C96.66 96 97.32 96 98 96 C98 96.66 98 97.32 98 98 C99.485 98.495 99.485 98.495 101 99 C101 99.66 101 100.32 101 101 C101.66 101 102.32 101 103 101 C103 101.66 103 102.32 103 103 C104.485 103.495 104.485 103.495 106 104 C106 104.66 106 105.32 106 106 C106.66 106 107.32 106 108 106 C108 106.66 108 107.32 108 108 C109.485 108.495 109.485 108.495 111 109 C111 109.66 111 110.32 111 111 C111.66 111 112.32 111 113 111 C113 111.66 113 112.32 113 113 C114.485 113.495 114.485 113.495 116 114 C116 114.66 116 115.32 116 116 C116.66 116 117.32 116 118 116 C118 116.66 118 117.32 118 118 C119.485 118.495 119.485 118.495 121 119 C121 119.66 121 120.32 121 121 C121.66 121 122.32 121 123 121 C123 121.66 123 122.32 123 123 C124.485 123.495 124.485 123.495 126 124 C126 124.66 126 125.32 126 126 C126.66 126 127.32 126 128 126 C128 126.66 128 127.32 128 128 C128.99 128.33 129.98 128.66 131 129 C131 129.66 131 130.32 131 131 C131.66 131 132.32 131 133 131 C133 131.66 133 132.32 133 133 C133.99 133.33 134.98 133.66 136 134 C136 134.66 136 135.32 136 136 C136.66 136 137.32 136 138 136 C138 136.66 138 137.32 138 138 C138.99 138.33 139.98 138.66 141 139 C141 139.66 141 140.32 141 141 C141.66 141 142.32 141 143 141 C143 141.66 143 142.32 143 143 C143.639375 143.268125 144.27875 143.53625 144.9375 143.8125 C147 145 147 145 148 148 C149.31872358 148.69511894 150.65493521 149.35733139 152 150 C154.10546875 151.76953125 154.10546875 151.76953125 156.1875 153.8125 C156.88230469 154.47894531 157.57710937 155.14539063 158.29296875 155.83203125 C160.30988258 158.39355797 161.06525863 159.72200906 161 163 C159.38940481 164.91737523 157.87196661 166.37220295 156 168 C154.79399868 169.18977708 153.59660906 170.38832311 152.40625 171.59375 C148.60416667 175.39583333 144.80208333 179.19791667 141 183 C139.83452637 184.16656128 139.83452637 184.16656128 138.64550781 185.35668945 C136.31648517 187.68377769 133.98314624 190.00637474 131.64752197 192.326828 C129.42870535 194.5322047 127.21260322 196.74030114 124.99658203 198.94848633 C123.82591188 200.11408369 122.65435235 201.27878845 121.48193359 202.44262695 C119.78248895 204.12999024 118.08625256 205.82052084 116.390625 207.51171875 C115.86462708 208.03255539 115.33862915 208.55339203 114.79669189 209.0900116 C112.05535707 211.78531423 112.05535707 211.78531423 110 215 C109.34 215 108.68 215 108 215 C108 215.66 108 216.32 108 217 C105.69 217 103.38 217 101 217 C101 216.34 101 215.68 101 215 C100.34 215 99.68 215 99 215 C99 214.34 99 213.68 99 213 C98.01 212.67 97.02 212.34 96 212 C94.52281189 210.50033569 94.52281189 210.50033569 92.92944336 208.55615234 C88.59929035 203.45656418 83.88766235 198.79865973 79.12890625 194.1015625 C77.72008913 192.70215191 76.31127759 191.30273564 74.90280819 189.90297508 C71.45967005 186.48266562 68.01092743 183.0680225 64.55981445 179.65576172 C62.60919463 177.72668722 60.66122578 175.79500604 58.71604919 173.86044312 C56.88959082 172.04436058 55.05901127 170.23241185 53.22401428 168.42495728 C52.40573654 167.61005829 51.5874588 166.7951593 50.74438477 165.95556641 C50.01937271 165.23801178 49.29436066 164.52045715 48.54737854 163.78115845 C47 162 47 162 47 160 C47.66 160 48.32 160 49 160 C50.3447876 161.36231995 50.3447876 161.36231995 51.94628906 163.31079102 C56.63925574 168.82474718 61.74532813 173.90953566 66.859375 179.02734375 C67.89600605 180.06719506 68.9325648 181.10711845 69.96905518 182.14710999 C72.12555829 184.30955653 74.28407269 186.4699719 76.44384766 188.62915039 C79.21182899 191.39702929 81.97281805 194.17177453 84.73217392 196.94824886 C86.86313483 199.09030644 88.99860299 201.22782581 91.13538361 203.36407661 C92.15607633 204.38594896 93.17514887 205.40944231 94.19255829 206.43458366 C95.60897908 207.86077521 97.0323568 209.28004737 98.45605469 210.69897461 C99.26322937 211.50757431 100.07040405 212.31617401 100.90203857 213.14927673 C102.95289753 215.20121385 102.95289753 215.20121385 106 216 C106 215.34 106 214.68 106 214 C107.40077209 212.61799622 107.40077209 212.61799622 109.37915039 210.98754883 C114.48759173 206.64020604 119.19794787 201.94582924 123.93359375 197.19921875 C124.85213638 196.28163284 125.77067902 195.36404694 126.71705627 194.4186554 C128.64396949 192.49320392 130.56909375 190.56598693 132.49291992 188.63745117 C134.95982339 186.16480285 137.43125536 183.69673681 139.904006 181.22993755 C142.27046121 178.86795286 144.63311268 176.50217911 146.99609375 174.13671875 C147.88453476 173.25030197 148.77297577 172.36388519 149.68833923 171.4506073 C150.50331375 170.63248062 151.31828827 169.81435394 152.15795898 168.97143555 C152.87773422 168.25086472 153.59750946 167.53029388 154.33909607 166.78788757 C156.07175796 165.0907399 156.07175796 165.0907399 157 163 C157.66 163 158.32 163 159 163 C156.56473187 158.39666529 153.38049549 155.10941431 149.71687317 151.48982239 C149.07727573 150.84992723 148.43767828 150.21003207 147.7786991 149.55074614 C145.63688242 147.41031713 143.48800649 145.27711949 141.33911133 143.14379883 C139.80129875 141.60982487 138.26394112 140.07539471 136.727005 138.5405426 C133.41826869 135.23812684 130.10645087 131.9388437 126.79224586 128.64191628 C121.55677522 123.43346557 116.32891945 118.21741703 111.10221863 113.00016785 C100.01154078 101.93169426 88.9124475 90.87167634 77.8125 79.8125 C65.81983667 67.86386837 53.82863878 55.91378507 41.84713 43.95396632 C36.64569099 38.76252181 31.43940671 33.57599973 26.22942889 28.39312518 C22.99775953 25.17631741 19.77018778 21.95542285 16.54374504 18.73337364 C15.04098706 17.23437673 13.53649303 15.73711802 12.03018951 14.24168396 C9.98292773 12.20873809 7.94181184 10.16981902 5.9021759 8.12922668 C5.29723433 7.53147503 4.69229275 6.93372338 4.06901962 6.31785804 C0 2.22818602 0 2.22818602 0 0 Z " fill="#494949" transform="translate(572,515)"/>
<path d="M0 0 C-10.76256452 5.99400252 -21.36922688 10.9298461 -33 15 C-34.35521759 15.51023819 -35.70937194 16.0233085 -37.0625 16.5390625 C-46.65968419 20.15149228 -56.39312269 22.42012361 -66.48999023 24.04882812 C-70.36170893 24.63088358 -70.36170893 24.63088358 -74 26 C-75.37486949 26.20612307 -76.7568308 26.36633467 -78.140625 26.5 C-79.37619141 26.62375 -79.37619141 26.62375 -80.63671875 26.75 C-81.93029297 26.87375 -81.93029297 26.87375 -83.25 27 C-84.9428806 27.1649077 -86.63559454 27.33153663 -88.328125 27.5 C-89.0799707 27.5721875 -89.83181641 27.644375 -90.60644531 27.71875 C-92.3719217 27.92619888 -94.12943101 28.20431484 -95.87866211 28.52075195 C-101.65220634 29.40721791 -107.48278959 29.18459241 -113.3125 29.1875 C-115.23352539 29.20586914 -115.23352539 29.20586914 -117.19335938 29.22460938 C-123.36889156 29.23414442 -129.02854403 29.0419644 -135.00854492 27.4699707 C-139.55643843 26.39669683 -144.28821571 26.52824541 -148.9375 26.34375 C-149.948125 26.2303125 -150.95875 26.116875 -152 26 C-152.33 25.34 -152.66 24.68 -153 24 C-144.75 24.33 -136.5 24.66 -128 25 C-128 25.66 -128 26.32 -128 27 C-123.46083081 26.88203546 -118.92189358 26.75780887 -114.38305664 26.62768555 C-112.83785711 26.58428015 -111.29260786 26.54260929 -109.74731445 26.50268555 C-107.53060904 26.44511801 -105.3141552 26.38138576 -103.09765625 26.31640625 C-102.4028566 26.29969376 -101.70805695 26.28298126 -100.99220276 26.26576233 C-97.71237971 26.43497144 -97.71237971 26.43497144 -95 25 C-92.64686445 24.92728259 -90.29166332 24.91629132 -87.9375 24.9375 C-86.00197266 24.95103516 -86.00197266 24.95103516 -84.02734375 24.96484375 C-83.02832031 24.97644531 -82.02929688 24.98804688 -81 25 C-81 24.34 -81 23.68 -81 23 C-74.62694402 22.25492456 -68.41688675 21.89650183 -62 22 C-62 21.34 -62 20.68 -62 20 C-58.04 19.67 -54.08 19.34 -50 19 C-50 18.34 -50 17.68 -50 17 C-49.31035156 16.90203125 -48.62070312 16.8040625 -47.91015625 16.703125 C-42.11184112 15.78048501 -37.20683479 14.48536959 -31.97265625 11.8046875 C-30 11 -30 11 -26 11 C-26 10.34 -26 9.68 -26 9 C-23.36 8.67 -20.72 8.34 -18 8 C-18 7.34 -18 6.68 -18 6 C-16.02 5.67 -14.04 5.34 -12 5 C-12 4.34 -12 3.68 -12 3 C-10.02 2.67 -8.04 2.34 -6 2 C-6 1.34 -6 0.68 -6 0 C-3 -1 -3 -1 0 0 Z " fill="#3D3D3D" transform="translate(412,506)"/>
<path d="M0 0 C0.99 0 1.98 0 3 0 C3.8125 2.1875 3.8125 2.1875 4 5 C2.38375065 6.76630731 0.74614826 8.3697786 -1 10 C-2.20195966 11.19385998 -3.39961173 12.39206682 -4.59375 13.59375 C-10.296875 19.296875 -10.296875 19.296875 -16 25 C-16.77698242 25.77770752 -17.55396484 26.55541504 -18.35449219 27.35668945 C-20.68351483 29.68377769 -23.01685376 32.00637474 -25.35247803 34.326828 C-27.57129465 36.5322047 -29.78739678 38.74030114 -32.00341797 40.94848633 C-33.17408812 42.11408369 -34.34564765 43.27878845 -35.51806641 44.44262695 C-37.21751105 46.12999024 -38.91374744 47.82052084 -40.609375 49.51171875 C-41.13537292 50.03255539 -41.66137085 50.55339203 -42.20330811 51.0900116 C-44.94464293 53.78531423 -44.94464293 53.78531423 -47 57 C-47.66 57 -48.32 57 -49 57 C-49 57.66 -49 58.32 -49 59 C-51.31 59 -53.62 59 -56 59 C-56 58.34 -56 57.68 -56 57 C-56.66 57 -57.32 57 -58 57 C-58 56.34 -58 55.68 -58 55 C-58.99 54.67 -59.98 54.34 -61 54 C-62.47718811 52.50033569 -62.47718811 52.50033569 -64.07055664 50.55615234 C-68.40070965 45.45656418 -73.11233765 40.79865973 -77.87109375 36.1015625 C-79.27991087 34.70215191 -80.68872241 33.30273564 -82.09719181 31.90297508 C-85.54032995 28.48266562 -88.98907257 25.0680225 -92.44018555 21.65576172 C-94.39080537 19.72668722 -96.33877422 17.79500604 -98.28395081 15.86044312 C-100.11040918 14.04436058 -101.94098873 12.23241185 -103.77598572 10.42495728 C-104.59426346 9.61005829 -105.4125412 8.7951593 -106.25561523 7.95556641 C-107.34313332 6.87923447 -107.34313332 6.87923447 -108.45262146 5.78115845 C-110 4 -110 4 -110 2 C-109.34 2 -108.68 2 -108 2 C-106.6552124 3.36231995 -106.6552124 3.36231995 -105.05371094 5.31079102 C-100.36074426 10.82474718 -95.25467187 15.90953566 -90.140625 21.02734375 C-89.10399395 22.06719506 -88.0674352 23.10711845 -87.03094482 24.14710999 C-84.87444171 26.30955653 -82.71592731 28.4699719 -80.55615234 30.62915039 C-77.78817101 33.39702929 -75.02718195 36.17177453 -72.26782608 38.94824886 C-70.13686517 41.09030644 -68.00139701 43.22782581 -65.86461639 45.36407661 C-64.84392367 46.38594896 -63.82485113 47.40944231 -62.80744171 48.43458366 C-61.39102092 49.86077521 -59.9676432 51.28004737 -58.54394531 52.69897461 C-57.73677063 53.50757431 -56.92959595 54.31617401 -56.09796143 55.14927673 C-54.04710247 57.20121385 -54.04710247 57.20121385 -51 58 C-51 57.34 -51 56.68 -51 56 C-49.59922791 54.61799622 -49.59922791 54.61799622 -47.62084961 52.98754883 C-42.51240827 48.64020604 -37.80205213 43.94582924 -33.06640625 39.19921875 C-32.14786362 38.28163284 -31.22932098 37.36404694 -30.28294373 36.4186554 C-28.35603051 34.49320392 -26.43090625 32.56598693 -24.50708008 30.63745117 C-22.04017661 28.16480285 -19.56874464 25.69673681 -17.095994 23.22993755 C-14.72953879 20.86795286 -12.36688732 18.50217911 -10.00390625 16.13671875 C-9.11546524 15.25030197 -8.22702423 14.36388519 -7.31166077 13.4506073 C-6.49668625 12.63248062 -5.68171173 11.81435394 -4.84204102 10.97143555 C-4.12226578 10.25086472 -3.40249054 9.53029388 -2.66090393 8.78788757 C-0.92824204 7.0907399 -0.92824204 7.0907399 0 5 C0.66 5 1.32 5 2 5 C1.01 2.525 1.01 2.525 0 0 Z " fill="#494949" transform="translate(729,673)"/>
<path d="M0 0 C1 3 1 3 0 6 C-0.66 6.33 -1.32 6.66 -2 7 C-4.30826653 10.5125795 -6.15723769 14.2267248 -8 18 C-8.66 18 -9.32 18 -10 18 C-10.33 20.31 -10.66 22.62 -11 25 C-11.66 25 -12.32 25 -13 25 C-13 25.99 -13 26.98 -13 28 C-13.66 28 -14.32 28 -15 28 C-15.12117188 28.61488281 -15.24234375 29.22976562 -15.3671875 29.86328125 C-15.53476563 30.67152344 -15.70234375 31.47976562 -15.875 32.3125 C-16.03742188 33.11300781 -16.19984375 33.91351563 -16.3671875 34.73828125 C-17 37 -17 37 -19 40 C-19.38499891 41.65549531 -19.72793135 43.3222433 -20 45 C-20.66 45 -21.32 45 -22 45 C-22 46.65 -22 48.3 -22 50 C-22.66 50 -23.32 50 -24 50 C-24.12375 51.051875 -24.2475 52.10375 -24.375 53.1875 C-25 57 -25 57 -25.9375 59.3125 C-27.17301121 62.43761659 -27.89630383 65.53336722 -28.625 68.8125 C-28.88539062 69.97394531 -29.14578125 71.13539063 -29.4140625 72.33203125 C-29.70410156 73.65267578 -29.70410156 73.65267578 -30 75 C-30.66 75 -31.32 75 -32 75 C-32.06058594 75.88300781 -32.12117188 76.76601562 -32.18359375 77.67578125 C-32.70378061 85.1264577 -33.28687258 92.56526736 -34 100 C-34.66 100 -35.32 100 -36 100 C-36 104.95 -36 109.9 -36 115 C-36.99 115 -37.98 115 -39 115 C-38.39168683 102.38550581 -36.86976832 90.31608903 -34 78 C-33.773125 76.95585937 -33.54625 75.91171875 -33.3125 74.8359375 C-32.12998889 69.47768402 -30.92873198 64.28150834 -28.8671875 59.19140625 C-27.7331881 56.32575913 -26.75504848 53.41332681 -25.75 50.5 C-21.64908696 38.98779833 -16.65162591 27.83445336 -11 17 C-10.34 17 -9.68 17 -9 17 C-8.91878906 16.30519531 -8.83757812 15.61039063 -8.75390625 14.89453125 C-7.80290332 11.24327129 -6.08073286 8.78328079 -3.9375 5.6875 C-2.83728516 4.08455078 -2.83728516 4.08455078 -1.71484375 2.44921875 C-1.14894531 1.64097656 -0.58304688 0.83273438 0 0 Z " fill="#484848" transform="translate(105,169)"/>
<path d="M0 0 C0.99 0.495 0.99 0.495 2 1 C2.62553783 3.34651513 3.12832665 5.61719487 3.5625 8 C3.69253418 8.67828857 3.82256836 9.35657715 3.95654297 10.05541992 C4.88590501 15.02602696 5.48884688 19.97366099 6 25 C6.33 25.66 6.66 26.32 7 27 C7.20715337 29.48296326 7.37365766 31.95042768 7.5 34.4375 C7.75598272 39.79429751 7.75598272 39.79429751 9 45 C9.20884256 49.47976067 9.18579285 53.96247461 9.18530273 58.4465332 C9.18744802 60.63448798 9.20548948 62.82190292 9.22460938 65.00976562 C9.32138347 89.35723306 9.32138347 89.35723306 6 96 C5.65319397 98.520901 5.34464341 101.03439179 5.0625 103.5625 C4.35870585 109.47397401 3.61295611 115.25384384 2 121 C1.01 121.495 1.01 121.495 0 122 C0.33 118.37 0.66 114.74 1 111 C1.66 111 2.32 111 3 111 C2.979375 109.72125 2.95875 108.4425 2.9375 107.125 C2.92941245 102.03792983 3.40979211 97.0483853 4 92 C4.66 92 5.32 92 6 92 C5.98839844 91.20464844 5.97679687 90.40929687 5.96484375 89.58984375 C5.85350446 74.71809566 6.47368407 59.86002636 7 45 C6.34 45 5.68 45 5 45 C4.66058296 41.02132817 4.32958345 37.04199752 4 33.0625 C3.90460937 31.94552734 3.80921875 30.82855469 3.7109375 29.67773438 C3.19757694 23.42573608 2.89356913 17.27276963 3 11 C2.34 11 1.68 11 1 11 C0.67 7.37 0.34 3.74 0 0 Z " fill="#888888" transform="translate(525,239)"/>
<path d="M0 0 C2.54490088 0.00536745 5.0896259 0.00002255 7.63452148 -0.00634766 C15.6366385 -0.01006234 23.54547886 -0.00486414 31.48413086 1.13037109 C31.97913086 1.62537109 31.97913086 1.62537109 32.48413086 2.13037109 C34.83137052 2.52786409 37.18741634 2.87405832 39.54663086 3.19287109 C40.83698242 3.36947266 42.12733398 3.54607422 43.45678711 3.72802734 C44.95532227 3.9271875 44.95532227 3.9271875 46.48413086 4.13037109 C46.48413086 4.79037109 46.48413086 5.45037109 46.48413086 6.13037109 C47.14799805 6.17935547 47.81186523 6.22833984 48.49584961 6.27880859 C57.26620467 7.021408 57.26620467 7.021408 61.48413086 9.13037109 C61.48413086 9.79037109 61.48413086 10.45037109 61.48413086 11.13037109 C62.47413086 11.46037109 63.46413086 11.79037109 64.48413086 12.13037109 C59.91285186 11.58181761 55.80977291 10.71292306 51.48413086 9.13037109 C51.48413086 8.47037109 51.48413086 7.81037109 51.48413086 7.13037109 C50.55729492 7.06978516 49.63045898 7.00919922 48.67553711 6.94677734 C47.47799805 6.86298828 46.28045898 6.77919922 45.04663086 6.69287109 C43.85166992 6.61166016 42.65670898 6.53044922 41.42553711 6.44677734 C38.48413086 6.13037109 38.48413086 6.13037109 37.48413086 5.13037109 C35.15595122 4.76276378 32.82229236 4.42795528 30.48413086 4.13037109 C30.48413086 3.47037109 30.48413086 2.81037109 30.48413086 2.13037109 C25.54435576 2.10517212 20.60462013 2.08728215 15.66479492 2.07543945 C13.99323879 2.0704893 12.3216868 2.06372747 10.65014648 2.05493164 C1.68118227 2.00900622 -7.280517 2.06072294 -16.24243164 2.44677734 C-16.95797211 2.46900864 -17.67351257 2.49123993 -18.41073608 2.5141449 C-23.62816214 2.78227445 -27.67166007 4.18554581 -32.51586914 6.13037109 C-36.14086914 6.64208984 -36.14086914 6.64208984 -39.51586914 6.81787109 C-40.65024414 6.88361328 -41.78461914 6.94935547 -42.95336914 7.01708984 C-43.79899414 7.05447266 -44.64461914 7.09185547 -45.51586914 7.13037109 C-45.51586914 7.79037109 -45.51586914 8.45037109 -45.51586914 9.13037109 C-47.26403773 9.63673717 -49.01449177 10.13521728 -50.76586914 10.63037109 C-51.74040039 10.90880859 -52.71493164 11.18724609 -53.71899414 11.47412109 C-56.51586914 12.13037109 -56.51586914 12.13037109 -60.51586914 12.13037109 C-60.51586914 12.79037109 -60.51586914 13.45037109 -60.51586914 14.13037109 C-61.83586914 14.13037109 -63.15586914 14.13037109 -64.51586914 14.13037109 C-64.51586914 13.47037109 -64.51586914 12.81037109 -64.51586914 12.13037109 C-62.43478229 11.45672448 -60.35090204 10.79170311 -58.26586914 10.13037109 C-57.10571289 9.75912109 -55.94555664 9.38787109 -54.75024414 9.00537109 C-51.51586914 8.13037109 -51.51586914 8.13037109 -47.51586914 8.13037109 C-47.51586914 7.47037109 -47.51586914 6.81037109 -47.51586914 6.13037109 C-45.53586914 6.13037109 -43.55586914 6.13037109 -41.51586914 6.13037109 C-41.51586914 5.47037109 -41.51586914 4.81037109 -41.51586914 4.13037109 C-36.75279477 3.17775622 -32.34921634 3.04703752 -27.51586914 3.13037109 C-27.51586914 2.47037109 -27.51586914 1.81037109 -27.51586914 1.13037109 C-18.34847195 -0.00153366 -9.21989659 -0.0231365 0 0 Z " fill="#464646" transform="translate(297.515869140625,132.86962890625)"/>
<path d="M0 0 C0.99 0.495 0.99 0.495 2 1 C2 1.66 2 2.32 2 3 C2.66 3 3.32 3 4 3 C4 3.66 4 4.32 4 5 C4.99 5.33 5.98 5.66 7 6 C7 6.66 7 7.32 7 8 C7.66 8 8.32 8 9 8 C9 8.66 9 9.32 9 10 C9.99 10.33 10.98 10.66 12 11 C12 11.66 12 12.32 12 13 C12.66 13 13.32 13 14 13 C14 13.66 14 14.32 14 15 C14.99 15.33 15.98 15.66 17 16 C17 16.66 17 17.32 17 18 C17.66 18 18.32 18 19 18 C19 18.66 19 19.32 19 20 C19.99 20.33 20.98 20.66 22 21 C22 21.66 22 22.32 22 23 C22.66 23 23.32 23 24 23 C24 23.66 24 24.32 24 25 C24.99 25.33 25.98 25.66 27 26 C27 26.66 27 27.32 27 28 C27.66 28 28.32 28 29 28 C29 28.66 29 29.32 29 30 C29.99 30.33 30.98 30.66 32 31 C32 31.66 32 32.32 32 33 C32.66 33 33.32 33 34 33 C34 33.66 34 34.32 34 35 C34.99 35.33 35.98 35.66 37 36 C37 36.66 37 37.32 37 38 C37.66 38 38.32 38 39 38 C39 38.66 39 39.32 39 40 C39.99 40.33 40.98 40.66 42 41 C42 41.66 42 42.32 42 43 C42.66 43 43.32 43 44 43 C44 43.66 44 44.32 44 45 C44.639375 45.268125 45.27875 45.53625 45.9375 45.8125 C48 47 48 47 49 50 C50.31952498 50.69359646 51.65525957 51.35665296 53 52 C54.921875 53.7265625 54.921875 53.7265625 56.75 55.625 C57.36359375 56.25664063 57.9771875 56.88828125 58.609375 57.5390625 C59.29773438 58.26222656 59.29773438 58.26222656 60 59 C59.01 59.33 58.02 59.66 57 60 C49.55933716 52.62875102 42.12672369 45.24949116 34.70436859 37.85980511 C31.25786751 34.428981 27.80862265 31.00101168 24.35302734 27.5793457 C21.02026267 24.27910171 17.69481252 20.9716502 14.37437439 17.65900612 C13.10427832 16.39446666 11.83153849 15.13257704 10.5561676 13.87335777 C8.77457976 12.1134469 7.0025015 10.34447246 5.23242188 8.57299805 C4.69942978 8.05079178 4.16643768 7.52858551 3.61729431 6.99055481 C0 3.34215648 0 3.34215648 0 0 Z " fill="#3A3A3A" transform="translate(671,613)"/>
<path d="M0 0 C0.98120464 3.05263664 0.98120464 4.94736336 0 8 C-0.66 8 -1.32 8 -2 8 C-2.0825 8.845625 -2.165 9.69125 -2.25 10.5625 C-2.98294459 13.92182939 -4.17183828 16.2859453 -5.953125 19.203125 C-7.59447224 22.02036281 -8.75060019 24.99008227 -10 28 C-10.65288627 29.34013497 -11.31225595 30.67741528 -12 32 C-12.99 32 -13.98 32 -15 32 C-15.17015625 32.87978516 -15.17015625 32.87978516 -15.34375 33.77734375 C-16.05109381 36.17304987 -16.98446384 37.59318412 -18.5 39.5625 C-20.23647708 41.82900642 -21.07490764 43.22472293 -22 46 C-23.5234375 47.4296875 -23.5234375 47.4296875 -25.375 48.875 C-28.37292481 51.33671062 -30.05081877 53.63323242 -32 57 C-33.65002828 58.35386936 -35.3174387 59.68678142 -37 61 C-38.37368345 62.63356951 -39.71937515 64.2925002 -41 66 C-42.32 65.67 -43.64 65.34 -45 65 C-41.25 62 -41.25 62 -39 62 C-38.5978125 61.0409375 -38.5978125 61.0409375 -38.1875 60.0625 C-37 58 -37 58 -34 57 C-33.30959426 55.34302621 -32.6469365 53.6744239 -32 52 C-30 49.1875 -30 49.1875 -28 47 C-27.34 47 -26.68 47 -26 47 C-26 46.34 -26 45.68 -26 45 C-25.34 45 -24.68 45 -24 45 C-23.73960937 44.27425781 -23.47921875 43.54851562 -23.2109375 42.80078125 C-21.96487991 39.91877063 -20.48907236 37.70684671 -18.625 35.1875 C-15.57528344 30.94081745 -13.1941988 26.73946941 -11 22 C-10.34 22 -9.68 22 -9 22 C-8.814375 20.9171875 -8.814375 20.9171875 -8.625 19.8125 C-8.0095069 17.04278106 -7.11555626 14.6029646 -6 12 C-5.34 12 -4.68 12 -4 12 C-3.8453125 10.9790625 -3.8453125 10.9790625 -3.6875 9.9375 C-2.85274981 6.37084011 -1.50527246 3.33777806 0 0 Z " fill="#3D3D3D" transform="translate(455,359)"/>
<path d="M0 0 C-10.76256452 5.99400252 -21.36922688 10.9298461 -33 15 C-34.35654053 15.51018006 -35.71199708 16.02325081 -37.06640625 16.5390625 C-45.96079957 19.886149 -55.03081936 22.16591429 -64.375 23.8125 C-65.11153809 23.94849609 -65.84807617 24.08449219 -66.60693359 24.22460938 C-71.66740925 25.0594681 -75.938518 24.83977184 -81 24 C-81 23.67 -81 23.34 -81 23 C-74.62694402 22.25492456 -68.41688675 21.89650183 -62 22 C-62 21.34 -62 20.68 -62 20 C-58.04 19.67 -54.08 19.34 -50 19 C-50 18.34 -50 17.68 -50 17 C-49.31035156 16.90203125 -48.62070312 16.8040625 -47.91015625 16.703125 C-42.11184112 15.78048501 -37.20683479 14.48536959 -31.97265625 11.8046875 C-30 11 -30 11 -26 11 C-26 10.34 -26 9.68 -26 9 C-23.36 8.67 -20.72 8.34 -18 8 C-18 7.34 -18 6.68 -18 6 C-15.03 5.505 -15.03 5.505 -12 5 C-12 4.34 -12 3.68 -12 3 C-9.03 2.505 -9.03 2.505 -6 2 C-6 1.34 -6 0.68 -6 0 C-3 -1 -3 -1 0 0 Z " fill="#434343" transform="translate(412,506)"/>
<path d="M0 0 C2.59783875 2.5082581 5.03692381 4.9572319 7 8 C7 8.99 7 9.98 7 11 C7.66 11 8.32 11 9 11 C9.24121582 11.51272461 9.48243164 12.02544922 9.73095703 12.55371094 C10.8608399 14.95316738 11.99263779 17.35171261 13.125 19.75 C13.74133301 21.05638428 13.74133301 21.05638428 14.37011719 22.38916016 C16.59503637 27.08901881 18.86960969 31.75130992 21.25 36.375 C26.27235978 46.33624543 32.38098445 58.61057017 32 70 C31.34 69.67 30.68 69.34 30 69 C30 67.68 30 66.36 30 65 C29.34 65 28.68 65 28 65 C27.67 61.37 27.34 57.74 27 54 C26.34 54 25.68 54 25 54 C24.67 51.36 24.34 48.72 24 46 C23.34 46 22.68 46 22 46 C21.32739649 44.23141309 20.66211605 42.46003984 20 40.6875 C19.62875 39.70136719 19.2575 38.71523437 18.875 37.69921875 C18 35 18 35 18 32 C17.34 32 16.68 32 16 32 C14.99303432 29.89915791 13.9946411 27.79420511 13 25.6875 C12.443125 24.51574219 11.88625 23.34398437 11.3125 22.13671875 C10 19 10 19 10 16 C9.34 16 8.68 16 8 16 C5 11.61538462 5 11.61538462 5 9 C4.34 9 3.68 9 3 9 C2.01 6.03 1.02 3.06 0 0 Z " fill="#404040" transform="translate(493,168)"/>
<path d="M0 0 C0.99 0 1.98 0 3 0 C3.8125 2.1875 3.8125 2.1875 4 5 C2.38375065 6.76630731 0.74614826 8.3697786 -1 10 C-2.20195966 11.19385998 -3.39961173 12.39206682 -4.59375 13.59375 C-18.0625 27.0625 -31.53125 40.53125 -45 54 C-45.66 53.67 -46.32 53.34 -47 53 C-46.42592911 52.42814972 -45.85185822 51.85629944 -45.26039124 51.26712036 C-39.85738284 45.88412818 -34.45676923 40.49875018 -29.05884647 35.11065865 C-26.28347267 32.34050902 -23.50717399 29.5712996 -20.72875977 26.80419922 C-18.04873923 24.13502401 -15.37115095 21.4634313 -12.69524956 18.7901268 C-11.67262919 17.76935771 -10.64912742 16.74947085 -9.62474251 15.73047256 C-8.19290935 14.30587156 -6.76446187 12.87787011 -5.33618164 11.44970703 C-4.52121719 10.6369632 -3.70625275 9.82421936 -2.86659241 8.98684692 C-0.94801782 7.13477122 -0.94801782 7.13477122 0 5 C0.66 5 1.32 5 2 5 C1.34 3.35 0.68 1.7 0 0 Z " fill="#535353" transform="translate(729,673)"/>
<path d="M0 0 C0.91007812 0.00902344 1.82015625 0.01804687 2.7578125 0.02734375 C3.80582031 0.04474609 3.80582031 0.04474609 4.875 0.0625 C4.875 0.7225 4.875 1.3825 4.875 2.0625 C-1.395 2.3925 -7.665 2.7225 -14.125 3.0625 C-14.125 3.7225 -14.125 4.3825 -14.125 5.0625 C-14.91003906 5.18367188 -15.69507813 5.30484375 -16.50390625 5.4296875 C-31.82549446 7.34938645 -31.82549446 7.34938645 -45.125 14.0625 C-46.79117115 14.10313832 -48.45888095 14.105221 -50.125 14.0625 C-50.125 15.0525 -50.125 16.0425 -50.125 17.0625 C-52.765 17.0625 -55.405 17.0625 -58.125 17.0625 C-57.125 15.0625 -57.125 15.0625 -54.75390625 14.1328125 C-53.74199219 13.82085937 -52.73007813 13.50890625 -51.6875 13.1875 C-47.81214718 11.95650558 -44.05054827 10.66092468 -40.3125 9.0625 C-30.47559325 5.0583745 -20.13740504 2.83904039 -9.63671875 1.45703125 C-0.3335436 -0.0042762 -0.3335436 -0.0042762 0 0 Z " fill="#5F5F5F" transform="translate(264.125,68.9375)"/>
<path d="M0 0 C3.63 0.66 7.26 1.32 11 2 C11 2.66 11 3.32 11 4 C11.66 4.103125 12.32 4.20625 13 4.3125 C16 5 16 5 19.6875 6.4375 C23.59526608 7.95636757 27.474763 8.77047418 31.58984375 9.52734375 C34.79791914 10.15648009 37.87392571 11.04858608 41 12 C41 12.66 41 13.32 41 14 C45.95 14.33 50.9 14.66 56 15 C56 15.66 56 16.32 56 17 C47.91138478 16.73523354 40.79207437 15.60795063 33.1171875 13.03125 C30.25996581 12.08600373 27.42218212 11.33648782 24.5 10.625 C19.03700858 9.17726728 14.11140348 6.87674729 9.04296875 4.40234375 C6.07386925 3.03404244 3.11800377 1.97408489 0 1 C0 0.67 0 0.34 0 0 Z " fill="#404040" transform="translate(203,513)"/>
<path d="M0 0 C3.76754912 0.60002489 6.71657869 1.68775107 10.09765625 3.44140625 C11.05857178 3.93882324 12.0194873 4.43624023 13.00952148 4.94873047 C14.01700439 5.48127441 15.0244873 6.01381836 16.0625 6.5625 C17.61142944 7.37678467 17.61142944 7.37678467 19.19165039 8.20751953 C26.45296296 12.07083315 33.36223906 16.12725543 40 21 C40.82113281 21.60070312 41.64226562 22.20140625 42.48828125 22.8203125 C44.34034207 24.19576354 46.17792794 25.58521463 48 27 C47.01 27.33 46.02 27.66 45 28 C41.78876153 26.39438076 39.51123142 24.51123142 37 22 C36.01 21.67 35.02 21.34 34 21 C34 20.34 34 19.68 34 19 C33.01 19 32.02 19 31 19 C31 18.34 31 17.68 31 17 C30.29101562 16.73316406 29.58203125 16.46632813 28.8515625 16.19140625 C25.89257093 14.95511525 23.17135797 13.50515522 20.375 11.9375 C17.5598548 10.36024741 15.06457848 9.02152616 12 8 C12 7.34 12 6.68 12 6 C9.03 5.505 9.03 5.505 6 5 C6 4.34 6 3.68 6 3 C3.03 2.505 3.03 2.505 0 2 C0 1.34 0 0.68 0 0 Z " fill="#4A4A4A" transform="translate(394,86)"/>
<path d="M0 0 C0.66 0.33 1.32 0.66 2 1 C1.67 1.66 1.34 2.32 1 3 C0.01 3 -0.98 3 -2 3 C-2 3.66 -2 4.32 -2 5 C-2.81984375 5.32613281 -3.6396875 5.65226562 -4.484375 5.98828125 C-5.56203125 6.42527344 -6.6396875 6.86226563 -7.75 7.3125 C-8.81734375 7.74175781 -9.8846875 8.17101562 -10.984375 8.61328125 C-13.68746543 9.85628268 -15.64865082 11.22310051 -18 13 C-20.18359375 13.84375 -20.18359375 13.84375 -22.4375 14.5 C-25.15966999 15.33963035 -27.04734349 16.03156232 -29.4375 17.625 C-33.39746846 19.74986113 -37.56699056 19.75037423 -42 20 C-42 19.34 -42 18.68 -42 18 C-41.14019531 17.78085937 -40.28039062 17.56171875 -39.39453125 17.3359375 C-31.63517975 15.25436665 -24.83486331 12.75374202 -17.64453125 9.171875 C-15 8 -15 8 -12 8 C-12 7.34 -12 6.68 -12 6 C-10.948125 5.566875 -9.89625 5.13375 -8.8125 4.6875 C-6.42053124 3.67551322 -4.41179855 2.63400799 -2.1875 1.25 C-1.465625 0.8375 -0.74375 0.425 0 0 Z " fill="#666666" transform="translate(388,441)"/>
<path d="M0 0 C0 0.66 0 1.32 0 2 C-1.98 2.33 -3.96 2.66 -6 3 C-6 3.66 -6 4.32 -6 5 C-7.98 5.33 -9.96 5.66 -12 6 C-12 6.66 -12 7.32 -12 8 C-13.010625 8.391875 -14.02125 8.78375 -15.0625 9.1875 C-18.54500113 10.66086586 -21.36226599 12.58125961 -24.32421875 14.9140625 C-26.19572269 16.12683195 -27.84381547 16.49555103 -30 17 C-31.02104551 17.97850195 -32.0206121 18.97980427 -33 20 C-34.33333333 20.66666667 -35.66666667 21.33333333 -37 22 C-37.495 22.556875 -37.99 23.11375 -38.5 23.6875 C-38.995 24.120625 -39.49 24.55375 -40 25 C-42.09375 24.58203125 -42.09375 24.58203125 -44 24 C-39.82068171 20.74338834 -35.6815821 17.66395117 -31.01953125 15.1171875 C-28.45636276 13.69926451 -25.95367164 12.18720495 -23.4375 10.6875 C-5.11607143 0 -5.11607143 0 0 0 Z " fill="#575757" transform="translate(206,86)"/>
<path d="M0 0 C0.66 0 1.32 0 2 0 C2.50615298 1.26839526 3.00469099 2.53983102 3.5 3.8125 C3.91765625 4.87404297 3.91765625 4.87404297 4.34375 5.95703125 C5 8 5 8 5 11 C5.66 11 6.32 11 7 11 C10 17.625 10 17.625 10 21 C10.66 21 11.32 21 12 21 C13.47309111 23.10019014 14.81309635 25.17767729 16.125 27.375 C16.49753906 27.97828125 16.87007812 28.5815625 17.25390625 29.203125 C20 33.72965316 20 33.72965316 20 36 C20.66 36 21.32 36 22 36 C21.67 36.66 21.34 37.32 21 38 C19 36.6875 19 36.6875 17 35 C17 34.01 17 33.02 17 32 C16.01 31.67 15.02 31.34 14 31 C12.55411284 28.6778176 11.24987408 26.41996897 10 24 C9.5875 23.2575 9.175 22.515 8.75 21.75 C8 20 8 20 8 17 C7.34 17 6.68 17 6 17 C6 16.01 6 15.02 6 14 C5.34 14 4.68 14 4 14 C3.34 10.7 2.68 7.4 2 4 C1.34 4 0.68 4 0 4 C0 2.68 0 1.36 0 0 Z " fill="#676767" transform="translate(145,363)"/>
<path d="M0 0 C0.33 0 0.66 0 1 0 C0.67 6.27 0.34 12.54 0 19 C-0.66 19 -1.32 19 -2 19 C-2 23.95 -2 28.9 -2 34 C-2.99 34 -3.98 34 -5 34 C-3.83609272 9.86423841 -3.83609272 9.86423841 0 0 Z " fill="#454545" transform="translate(71,250)"/>
<path d="M0 0 C1.10844919 3.32534757 0.84454356 5.62182575 0 9 C-0.66 9 -1.32 9 -2 9 C-2.12375 10.051875 -2.2475 11.10375 -2.375 12.1875 C-3 16 -3 16 -3.9375 18.3125 C-5.17301121 21.43761659 -5.89630383 24.53336722 -6.625 27.8125 C-6.88539062 28.97394531 -7.14578125 30.13539063 -7.4140625 31.33203125 C-7.60742188 32.21246094 -7.80078125 33.09289062 -8 34 C-8.66 34 -9.32 34 -10 34 C-10 35.98 -10 37.96 -10 40 C-10.66 40 -11.32 40 -12 40 C-9.96393218 26.63160737 -6.08719836 12.17439671 0 0 Z " fill="#3F3F3F" transform="translate(83,210)"/>
<path d="M0 0 C1.60854091 3.21708181 0.59044004 6.54244545 0.125 10 C0.03347656 10.73734375 -0.05804687 11.4746875 -0.15234375 12.234375 C-0.86414717 17.72829433 -0.86414717 17.72829433 -2 20 C-2.34680603 22.520901 -2.65535659 25.03439179 -2.9375 27.5625 C-3.64129415 33.47397401 -4.38704389 39.25384384 -6 45 C-6.99 45.495 -6.99 45.495 -8 46 C-7.67 42.37 -7.34 38.74 -7 35 C-6.34 35 -5.68 35 -5 35 C-5.020625 33.72125 -5.04125 32.4425 -5.0625 31.125 C-5.07058755 26.03792983 -4.59020789 21.0483853 -4 16 C-3.34 16 -2.68 16 -2 16 C-2.02320313 15.01257813 -2.04640625 14.02515625 -2.0703125 13.0078125 C-2.09738281 11.08582031 -2.09738281 11.08582031 -2.125 9.125 C-2.14820313 7.84882813 -2.17140625 6.57265625 -2.1953125 5.2578125 C-2 2 -2 2 0 0 Z " fill="#5B5B5B" transform="translate(533,315)"/>
<path d="M0 0 C0.66 0 1.32 0 2 0 C2 4.95 2 9.9 2 15 C2.99 15 3.98 15 5 15 C5.33725065 18.04127817 5.66992332 21.08294191 6 24.125 C6.09539062 24.9809375 6.19078125 25.836875 6.2890625 26.71875 C6.76845209 31.17022474 7.11765458 35.51441925 7 40 C0.61694002 30.42541003 0 11.40937397 0 0 Z " fill="#4F4F4F" transform="translate(66,316)"/>
<path d="M0 0 C0.33 0 0.66 0 1 0 C1 16.17 1 32.34 1 49 C0.01 49 -0.98 49 -2 49 C-2 45.37 -2 41.74 -2 38 C-1.34 38 -0.68 38 0 38 C0 25.46 0 12.92 0 0 Z " fill="#515151" transform="translate(466,281)"/>
<path d="M0 0 C2.35171131 0.59861742 4.6859378 1.26924352 7 2 C7.33 2.66 7.66 3.32 8 4 C10.52733235 4.65555119 10.52733235 4.65555119 13 5 C13 5.99 13 6.98 13 8 C13.56203125 8.12246094 14.1240625 8.24492187 14.703125 8.37109375 C17.18986519 9.0519869 19.40514776 9.99352325 21.75 11.0625 C22.54921875 11.42472656 23.3484375 11.78695313 24.171875 12.16015625 C24.77515625 12.43730469 25.3784375 12.71445312 26 13 C26 13.66 26 14.32 26 15 C28.97 15.495 28.97 15.495 32 16 C32 16.66 32 17.32 32 18 C32.99 18 33.98 18 35 18 C35 18.66 35 19.32 35 20 C23.06103736 15.47381687 8.8343616 9.31189466 0 0 Z " fill="#454545" transform="translate(168,493)"/>
<path d="M0 0 C2.64 0.33 5.28 0.66 8 1 C8 1.66 8 2.32 8 3 C10.31 3.33 12.62 3.66 15 4 C15 4.66 15 5.32 15 6 C15.88751953 6.23783203 15.88751953 6.23783203 16.79296875 6.48046875 C22.21569926 8.08163388 25.35950451 9.65489248 29 14 C24.9871224 14 22.34224446 12.16364012 18.9375 10.25 C13.65996385 7.34243895 8.45438064 4.80072188 2.7578125 2.7890625 C1 2 1 2 0 0 Z " fill="#616161" transform="translate(362,145)"/>
<path d="M0 0 C2.475 0.99 2.475 0.99 5 2 C5 2.66 5 3.32 5 4 C5.98033203 4.37511719 5.98033203 4.37511719 6.98046875 4.7578125 C10.82031849 6.33746608 14.56005766 8.09943801 18.3125 9.875 C19.03373047 10.21402344 19.75496094 10.55304688 20.49804688 10.90234375 C25.36779972 13.1996442 30.19165878 15.57681335 35 18 C31.86650268 19.04449911 31.01031744 18.93423645 28 18 C28 17.34 28 16.68 28 16 C27.278125 15.87625 26.55625 15.7525 25.8125 15.625 C23.04278106 15.0095069 20.6029646 14.11555626 18 13 C18 12.34 18 11.68 18 11 C13.545 10.01 13.545 10.01 9 9 C9 8.34 9 7.68 9 7 C8.360625 6.896875 7.72125 6.79375 7.0625 6.6875 C6.381875 6.460625 5.70125 6.23375 5 6 C4.67 5.01 4.34 4.02 4 3 C1.98491642 2.26676204 1.98491642 2.26676204 0 2 C0 1.34 0 0.68 0 0 Z " fill="#434343" transform="translate(205,437)"/>
<path d="M0 0 C1.65 0 3.3 0 5 0 C4.0409375 0.1546875 4.0409375 0.1546875 3.0625 0.3125 C2.381875 0.539375 1.70125 0.76625 1 1 C0.67 1.99 0.34 2.98 0 4 C-3.47508078 4.70930165 -6.95544592 5.38833873 -10.4375 6.0625 C-11.89833008 6.36124023 -11.89833008 6.36124023 -13.38867188 6.66601562 C-19.61869888 7.85367964 -24.73511102 8.03011101 -31 7 C-31 6.67 -31 6.34 -31 6 C-24.62694402 5.25492456 -18.41688675 4.89650183 -12 5 C-12 4.34 -12 3.68 -12 3 C-6.06 2.505 -6.06 2.505 0 2 C0 1.34 0 0.68 0 0 Z " fill="#5A5A5A" transform="translate(362,523)"/>
<path d="M0 0 C0.66 0 1.32 0 2 0 C2.33 1.98 2.66 3.96 3 6 C3.66 6 4.32 6 5 6 C5.34611328 6.8353125 5.34611328 6.8353125 5.69921875 7.6875 C7.77902025 12.5540711 10.09790279 16.97428277 13.046875 21.37109375 C14 23 14 23 14 25 C14.66 25 15.32 25 16 25 C16.33 26.65 16.66 28.3 17 30 C12.73014502 26.12997243 10.0963905 22.11584064 7.375 17.0625 C6.80265625 16.02706055 6.80265625 16.02706055 6.21875 14.97070312 C5.12922429 12.98889344 4.06089686 10.99725366 3 9 C2.41476563 7.90558594 1.82953125 6.81117188 1.2265625 5.68359375 C0 3 0 3 0 0 Z " fill="#4E4E4E" transform="translate(89,400)"/>
<path d="M0 0 C0.33 0.66 0.66 1.32 1 2 C-3.37127495 7.66646753 -8.24997668 12.32227033 -13.8125 16.8125 C-15.27623047 17.99779297 -15.27623047 17.99779297 -16.76953125 19.20703125 C-17.50558594 19.79871094 -18.24164063 20.39039063 -19 21 C-19.33 20.34 -19.66 19.68 -20 19 C-18.37660195 17.29115995 -16.70680947 15.62553283 -15 14 C-14.34 14 -13.68 14 -13 14 C-12.67 13.01 -12.34 12.02 -12 11 C-11.34 11 -10.68 11 -10 11 C-10 10.34 -10 9.68 -10 9 C-9.34 9 -8.68 9 -8 9 C-7.67 8.01 -7.34 7.02 -7 6 C-6.34 6 -5.68 6 -5 6 C-5 5.34 -5 4.68 -5 4 C-4.34 4 -3.68 4 -3 4 C-2.67 3.01 -2.34 2.02 -2 1 C-1.34 0.67 -0.68 0.34 0 0 Z " fill="#636363" transform="translate(149,120)"/>
<path d="M0 0 C0.99 0.495 0.99 0.495 2 1 C2 2.32 2 3.64 2 5 C2.66 5 3.32 5 4 5 C4 6.32 4 7.64 4 9 C4.66 9 5.32 9 6 9 C6.33774332 11.22850277 6.6700187 13.45783467 7 15.6875 C7.185625 16.92886719 7.37125 18.17023438 7.5625 19.44921875 C7.92100411 22.35886371 8.08942256 25.07700022 8 28 C5.5281143 25.5281143 5.55680044 24.22552687 5.0625 20.8125 C4.50426139 17.40990278 3.92305487 14.42783837 2.4375 11.3125 C0.74253112 7.40670216 0.37036599 4.22217228 0 0 Z " fill="#636363" transform="translate(456,240)"/>
<path d="M0 0 C0.33 0.99 0.66 1.98 1 3 C0.071875 3.886875 -0.85625 4.77375 -1.8125 5.6875 C-3.7777456 7.63897051 -5.13220284 9.22210077 -6.5625 11.625 C-8.29449683 14.48655998 -10.37445737 15.950796 -13 18 C-14.37368345 19.63356951 -15.71937515 21.2925002 -17 23 C-18.32 22.67 -19.64 22.34 -21 22 C-17.25 19 -17.25 19 -15 19 C-14.731875 18.360625 -14.46375 17.72125 -14.1875 17.0625 C-13 15 -13 15 -10 14 C-9.30959426 12.34302621 -8.6469365 10.6744239 -8 9 C-6 6.1875 -6 6.1875 -4 4 C-3.34 4 -2.68 4 -2 4 C-2 3.34 -2 2.68 -2 2 C-1.34 2 -0.68 2 0 2 C0 1.34 0 0.68 0 0 Z " fill="#3D3D3D" transform="translate(431,402)"/>
<path d="M0 0 C1 3 1 3 -0.3125 5.6875 C-0.869375 6.450625 -1.42625 7.21375 -2 8 C-2.66 8 -3.32 8 -4 8 C-4.268125 8.69609375 -4.53625 9.3921875 -4.8125 10.109375 C-6.09184669 13.22357417 -7.5122674 16.22990283 -9 19.25 C-9.515625 20.30703125 -10.03125 21.3640625 -10.5625 22.453125 C-12 25 -12 25 -14 26 C-13.67 24.02 -13.34 22.04 -13 20 C-12.34 20 -11.68 20 -11 20 C-10.67 18.02 -10.34 16.04 -10 14 C-9.34 14 -8.68 14 -8 14 C-7.87625 13.4225 -7.7525 12.845 -7.625 12.25 C-6.99351176 9.97664233 -6.11141809 8.0746471 -5 6 C-4.34 6 -3.68 6 -3 6 C-2.87625 5.195625 -2.7525 4.39125 -2.625 3.5625 C-2.41875 2.716875 -2.2125 1.87125 -2 1 C-1.34 0.67 -0.68 0.34 0 0 Z " fill="#626262" transform="translate(164,200)"/>
<path d="M0 0 C0 0.66 0 1.32 0 2 C-2.31 2 -4.62 2 -7 2 C-7 2.66 -7 3.32 -7 4 C-12.36095333 5.12862175 -17.55306686 5.09688221 -23 5 C-23 4.34 -23 3.68 -23 3 C-22.35933594 2.95101563 -21.71867187 2.90203125 -21.05859375 2.8515625 C-13.90186226 2.23294786 -7.15891005 -0.34921512 0 0 Z " fill="#696969" transform="translate(344,461)"/>
<path d="M0 0 C0.99 0.33 1.98 0.66 3 1 C3 1.66 3 2.32 3 3 C3.53109375 3.20367187 4.0621875 3.40734375 4.609375 3.6171875 C8.02874104 5.59505609 10.51337921 8.30326899 13.25 11.125 C14.08144531 11.96998047 14.08144531 11.96998047 14.9296875 12.83203125 C16.29104485 14.21686028 17.64614859 15.60783204 19 17 C15.78715066 17 14.67018825 16.67722807 12 15 C10.25390625 12.9765625 10.25390625 12.9765625 8.5625 10.625 C5.98902467 7.16966567 3.44840398 4.61242726 0 2 C0 1.34 0 0.68 0 0 Z " fill="#414141" transform="translate(450,120)"/>
<path d="M0 0 C0.66 0.33 1.32 0.66 2 1 C1.5875 1.52207031 1.175 2.04414063 0.75 2.58203125 C-3.38895661 7.85735318 -7.3458803 13.22984178 -11.203125 18.71484375 C-13 21 -13 21 -16 23 C-14.51417413 18.52582771 -12.02611249 15.14542123 -9.125 11.5 C-8.69058594 10.94441406 -8.25617188 10.38882813 -7.80859375 9.81640625 C-5.22979807 6.5251505 -2.61641905 3.26139677 0 0 Z " fill="#4A4A4A" transform="translate(122,146)"/>
<path d="M0 0 C0.66 0 1.32 0 2 0 C2 1.98 2 3.96 2 6 C2.66 6 3.32 6 4 6 C4.12117188 6.71285156 4.24234375 7.42570312 4.3671875 8.16015625 C5.31063969 13.55234841 6.37362209 18.77235672 8 24 C7.34 24 6.68 24 6 24 C2.91848367 16.36957862 0 8.2915676 0 0 Z " fill="#616161" transform="translate(73,356)"/>
<path d="M0 0 C0.66 0 1.32 0 2 0 C3.62109375 1.6796875 3.62109375 1.6796875 5.4375 3.875 C7.58400884 6.46193722 9.16776562 8.11184374 12 10 C12 10.66 12 11.32 12 12 C12.99 12.33 13.98 12.66 15 13 C14.67 13.66 14.34 14.32 14 15 C10.21074194 12.90009145 7.25611277 10.55334604 4.1875 7.5 C3.39730469 6.7265625 2.60710937 5.953125 1.79296875 5.15625 C0 3 0 3 0 0 Z " fill="#3A3A3A" transform="translate(175,411)"/>
<path d="M0 0 C0.98120464 3.05263664 0.98120464 4.94736336 0 8 C-0.66 8 -1.32 8 -2 8 C-2.0825 8.845625 -2.165 9.69125 -2.25 10.5625 C-3.16096902 14.73777468 -4.76537918 17.36874117 -7 21 C-7.33 21.66 -7.66 22.32 -8 23 C-8.99 22.67 -9.98 22.34 -11 22 C-10.34 22 -9.68 22 -9 22 C-8.87625 21.278125 -8.7525 20.55625 -8.625 19.8125 C-8.0095069 17.04278106 -7.11555626 14.6029646 -6 12 C-5.34 12 -4.68 12 -4 12 C-3.896875 11.319375 -3.79375 10.63875 -3.6875 9.9375 C-2.85274981 6.37084011 -1.50527246 3.33777806 0 0 Z " fill="#393939" transform="translate(455,359)"/>
<path d="M0 0 C4.52117271 1.2330471 6.82083644 2.61572912 10 6 C10.825 6.45375 11.65 6.9075 12.5 7.375 C15.64030088 9.41619557 17.09118633 11.81864388 19 15 C17.0625 14.1875 17.0625 14.1875 15 13 C14.67 12.01 14.34 11.02 14 10 C12.09821215 9.39938767 12.09821215 9.39938767 10 9 C9.01 8.34 8.02 7.68 7 7 C7 6.34 7 5.68 7 5 C6.21625 4.690625 5.4325 4.38125 4.625 4.0625 C2 3 2 3 0 2 C0 1.34 0 0.68 0 0 Z " fill="#484848" transform="translate(392,160)"/>
<path d="M0 0 C1.9375 0.3125 1.9375 0.3125 4 1 C4.33 1.99 4.66 2.98 5 4 C5.99 4.66 6.98 5.32 8 6 C8.984375 8.0234375 8.984375 8.0234375 9.75 10.375 C10.01296875 11.14585937 10.2759375 11.91671875 10.546875 12.7109375 C11.03705634 15.1871984 10.80000683 16.63241221 10 19 C9.67 17.02 9.34 15.04 9 13 C8.34 13 7.68 13 7 13 C6.0204042 11.20856793 5.0413367 9.41684696 4.0625 7.625 C3.51722656 6.62726563 2.97195313 5.62953125 2.41015625 4.6015625 C1.5850241 3.07929654 0.77435609 1.54871217 0 0 Z " fill="#5D5D5D" transform="translate(437,205)"/>
<path d="M0 0 C0.66 0 1.32 0 2 0 C3.47309111 2.10019014 4.81309635 4.17767729 6.125 6.375 C6.49753906 6.97828125 6.87007812 7.5815625 7.25390625 8.203125 C10 12.72965316 10 12.72965316 10 15 C10.66 15 11.32 15 12 15 C11.67 15.66 11.34 16.32 11 17 C9 15.6875 9 15.6875 7 14 C7 13.01 7 12.02 7 11 C6.01 10.67 5.02 10.34 4 10 C1.65735794 6.75634176 0.56410871 3.94876098 0 0 Z " fill="#4C4C4C" transform="translate(155,384)"/>
<path d="M0 0 C0.99 0.495 0.99 0.495 2 1 C2 2.65 2 4.3 2 6 C2.66 6 3.32 6 4 6 C4.6987693 7.76641683 5.38366583 9.53832664 6.0625 11.3125 C6.44535156 12.29863281 6.82820313 13.28476562 7.22265625 14.30078125 C8 17 8 17 7 20 C3.37172342 13.34261178 0.29455112 7.65832917 0 0 Z " fill="#606060" transform="translate(81,380)"/>
<path d="M0 0 C8.71002769 0.91684502 16.08112154 3.30093206 24 7 C22 8 22 8 20.08203125 7.4765625 C19.33308594 7.19554688 18.58414062 6.91453125 17.8125 6.625 C13.83558716 5.21570564 10.1880807 4.4455405 6 4 C6 3.34 6 2.68 6 2 C4.02 2 2.04 2 0 2 C0 1.34 0 0.68 0 0 Z " fill="#595959" transform="translate(356,73)"/>
<path d="M0 0 C0.33 0.66 0.66 1.32 1 2 C1.66 2 2.32 2 3 2 C3.67610423 3.89248819 4.34050439 5.7891602 5 7.6875 C5.37125 8.74324219 5.7425 9.79898438 6.125 10.88671875 C6.9391857 13.78362056 7.17709796 16.01700623 7 19 C6.34 18.67 5.68 18.34 5 18 C5 16.68 5 15.36 5 14 C4.34 14 3.68 14 3 14 C2.67 10.37 2.34 6.74 2 3 C1.34 3 0.68 3 0 3 C0 2.01 0 1.02 0 0 Z " fill="#707070" transform="translate(518,219)"/>
<path d="M0 0 C4.22757175 0.50257846 6.27132895 2.87048401 9.1875 5.8125 C10.06792969 6.68519531 10.94835937 7.55789062 11.85546875 8.45703125 C13.84124344 10.81174769 14.64365996 12.00255142 15 15 C14.34 15 13.68 15 13 15 C10 11.53846154 10 11.53846154 10 9 C9.34 9 8.68 9 8 9 C8 8.34 8 7.68 8 7 C7.34 7 6.68 7 6 7 C1.34090909 2.68181818 1.34090909 2.68181818 0 0 Z " fill="#414141" transform="translate(411,175)"/>
<path d="M0 0 C0.33 0 0.66 0 1 0 C0.67 6.27 0.34 12.54 0 19 C-0.66 19 -1.32 19 -2 19 C-2.05451714 16.95863605 -2.09302485 14.91684144 -2.125 12.875 C-2.14820312 11.73804688 -2.17140625 10.60109375 -2.1953125 9.4296875 C-1.99672109 5.94242233 -1.2524801 3.2446138 0 0 Z " fill="#656565" transform="translate(71,250)"/>
<path d="M0 0 C0.99 0.495 0.99 0.495 2 1 C2.64583243 3.42927796 3.16999412 5.78461099 3.625 8.25 C3.7590625 8.91902344 3.893125 9.58804688 4.03125 10.27734375 C4.72801653 13.8962638 5.15710263 17.31522916 5 21 C4.34 20.67 3.68 20.34 3 20 C3 17.03 3 14.06 3 11 C2.34 11 1.68 11 1 11 C0.67 7.37 0.34 3.74 0 0 Z " fill="#4C4C4C" transform="translate(525,239)"/>
<path d="M0 0 C0.66 0 1.32 0 2 0 C3.03251062 2.43313372 4.05119521 4.87056892 5.0625 7.3125 C5.35705078 8.00279297 5.65160156 8.69308594 5.95507812 9.40429688 C8.11328125 14.66015625 8.11328125 14.66015625 7 18 C7 17.34 7 16.68 7 16 C6.34 16 5.68 16 5 16 C5 14.35 5 12.7 5 11 C4.34 11 3.68 11 3 11 C2.49384702 9.73160474 1.99530901 8.46016898 1.5 7.1875 C1.2215625 6.47980469 0.943125 5.77210938 0.65625 5.04296875 C0 3 0 3 0 0 Z " fill="#545454" transform="translate(512,203)"/>
<path d="M0 0 C0.99 0 1.98 0 3 0 C3.8125 2.1875 3.8125 2.1875 4 5 C1.9375 7.5 1.9375 7.5 -1 10 C-1.55171875 10.47050781 -2.1034375 10.94101562 -2.671875 11.42578125 C-4.10085971 12.63361356 -5.54887889 13.81885491 -7 15 C-5.32598022 11.04322598 -2.86850715 8.15535787 0 5 C0.66 5 1.32 5 2 5 C1.34 3.35 0.68 1.7 0 0 Z " fill="#494949" transform="translate(729,673)"/>
<path d="M0 0 C0.66 0 1.32 0 2 0 C0.07612143 4.72224739 -3.12387169 8.01726613 -7.625 10.375 C-10 11 -10 11 -13 10 C-11.2126038 8.66094733 -9.41995047 7.32890934 -7.625 6 C-6.62726563 5.2575 -5.62953125 4.515 -4.6015625 3.75 C-2 2 -2 2 0 2 C0 1.34 0 0.68 0 0 Z " fill="#505050" transform="translate(404,429)"/>
<path d="M0 0 C0.33 0 0.66 0 1 0 C0.85866501 1.77119803 0.71176792 3.54195287 0.5625 5.3125 C0.48128906 6.29863281 0.40007812 7.28476562 0.31640625 8.30078125 C0 11 0 11 -1 14 C-1.99 14 -2.98 14 -4 14 C-3.46148032 8.72250715 -2.22656164 4.74354436 0 0 Z " fill="#666666" transform="translate(460,345)"/>
<path d="M0 0 C3.6324009 -0.48521867 4.95360931 -0.02933614 8.11328125 1.96875 C9.18914879 2.80040221 10.25542993 3.64458243 11.3125 4.5 C11.86228516 4.92925781 12.41207031 5.35851562 12.97851562 5.80078125 C14.32746102 6.85647765 15.66491846 7.92682441 17 9 C16.01 9.33 15.02 9.66 14 10 C10.78876153 8.39438076 8.51123142 6.51123142 6 4 C5.01 3.67 4.02 3.34 3 3 C3 2.34 3 1.68 3 1 C2.01 0.67 1.02 0.34 0 0 Z " fill="#4D4D4D" transform="translate(425,104)"/>
<path d="M0 0 C2.10556662 0.94387469 3.74700056 1.73380059 5.34765625 3.41796875 C7.88081232 5.84333095 10.92898508 7.14861383 14.0390625 8.71875 C16 10 16 10 17 13 C13.99188921 11.57114738 11.26188144 9.92109488 8.5 8.0625 C7.7471875 7.55847656 6.994375 7.05445313 6.21875 6.53515625 C5.4865625 6.02855469 4.754375 5.52195312 4 5 C3.2471875 4.48308594 2.494375 3.96617187 1.71875 3.43359375 C1.1515625 2.96050781 0.584375 2.48742187 0 2 C0 1.34 0 0.68 0 0 Z " fill="#464646" transform="translate(151,480)"/>
<path d="M0 0 C0.99 0 1.98 0 3 0 C3 3.63 3 7.26 3 11 C2.01 11 1.02 11 0 11 C0 7.37 0 3.74 0 0 Z " fill="#878787" transform="translate(464,319)"/>
<path d="M0 0 C0.66 0 1.32 0 2 0 C6.21130444 4.93286751 7.65865732 9.62826995 8 16 C7.34 15.67 6.68 15.34 6 15 C6 13.68 6 12.36 6 11 C5.34 11 4.68 11 4 11 C2.68 7.37 1.36 3.74 0 0 Z " fill="#595959" transform="translate(448,224)"/>
<path d="M0 0 C0.66 0 1.32 0 2 0 C3.77792461 2.04712784 5.42930397 4.09242561 7.0625 6.25 C7.52205078 6.83652344 7.98160156 7.42304688 8.45507812 8.02734375 C10.72073806 10.98833837 12.2663923 13.35227071 13 17 C9.125 14.375 9.125 14.375 8 11 C7.34 10.67 6.68 10.34 6 10 C4.9935725 8.33720673 3.99414593 6.67016516 3 5 C2.443125 4.443125 1.88625 3.88625 1.3125 3.3125 C0.879375 2.879375 0.44625 2.44625 0 2 C0 1.34 0 0.68 0 0 Z " fill="#373737" transform="translate(480,151)"/>
<path d="M0 0 C4.04161955 1.34484714 6.38678154 3.0505162 9.3125 6.125 C10.00988281 6.84945312 10.70726562 7.57390625 11.42578125 8.3203125 C11.94527344 8.87460937 12.46476563 9.42890625 13 10 C12.01 10.33 11.02 10.66 10 11 C8.33035479 9.35718838 6.6643536 7.71067239 5 6.0625 C4.071875 5.14597656 3.14375 4.22945312 2.1875 3.28515625 C0 1 0 1 0 0 Z " fill="#404040" transform="translate(718,662)"/>
<path d="M0 0 C2.59783875 2.5082581 5.03692381 4.9572319 7 8 C7 8.99 7 9.98 7 11 C7.66 11 8.32 11 9 11 C9 12.65 9 14.3 9 16 C5 11.25 5 11.25 5 9 C4.34 9 3.68 9 3 9 C2.01 6.03 1.02 3.06 0 0 Z " fill="#575757" transform="translate(493,168)"/>
<path d="M0 0 C0.99 0.33 1.98 0.66 3 1 C0.71180854 2.50554634 -1.58021169 4.00457043 -3.875 5.5 C-4.85146484 6.14388672 -4.85146484 6.14388672 -5.84765625 6.80078125 C-10.7734375 10 -10.7734375 10 -13 10 C-12 7 -12 7 -9.3125 5.5625 C-8.219375 5.046875 -7.12625 4.53125 -6 4 C-4.4221875 2.88625 -4.4221875 2.88625 -2.8125 1.75 C-1.884375 1.1725 -0.95625 0.595 0 0 Z " fill="#787878" transform="translate(425,495)"/>
<path d="M0 0 C2.35171131 0.59861742 4.6859378 1.26924352 7 2 C7.33 2.66 7.66 3.32 8 4 C10.52733235 4.65555119 10.52733235 4.65555119 13 5 C13 5.99 13 6.98 13 8 C13.99 8.33 14.98 8.66 16 9 C9.45178624 8.20627712 4.31545178 4.833306 0 0 Z " fill="#5B5B5B" transform="translate(168,493)"/>
<path d="M0 0 C0.99 0.33 1.98 0.66 3 1 C2.43410156 1.48210937 1.86820313 1.96421875 1.28515625 2.4609375 C0.55167969 3.09257812 -0.18179688 3.72421875 -0.9375 4.375 C-1.66839844 5.00148437 -2.39929688 5.62796875 -3.15234375 6.2734375 C-5.08380906 7.87747714 -5.08380906 7.87747714 -6 10 C-6.66 10 -7.32 10 -8 10 C-8.66 11.32 -9.32 12.64 -10 14 C-10.33 13.01 -10.66 12.02 -11 11 C-7.37 7.37 -3.74 3.74 0 0 Z " fill="#454545" transform="translate(186,175)"/>
<path d="M0 0 C4.94716669 0.49471667 8.7622163 1.33906605 13 4 C14.375 6.1875 14.375 6.1875 15 8 C11.45756548 6.63408831 8.07372071 5.09068516 4.6875 3.375 C3.80449219 2.92898437 2.92148437 2.48296875 2.01171875 2.0234375 C1.34785156 1.68570313 0.68398438 1.34796875 0 1 C0 0.67 0 0.34 0 0 Z " fill="#474747" transform="translate(376,152)"/>
<path d="M0 0 C4.13621084 3.3810038 7.81316569 6.66590534 11 11 C10.67 11.66 10.34 12.32 10 13 C8.32438946 11.40517782 6.65974066 9.79883156 5 8.1875 C3.6078125 6.84751953 3.6078125 6.84751953 2.1875 5.48046875 C0 3 0 3 0 0 Z " fill="#434343" transform="translate(469,138)"/>
<path d="M0 0 C3.63 0 7.26 0 11 0 C11 0.33 11 0.66 11 1 C8.94921875 1.22786458 6.8984375 1.45572917 4.84765625 1.68359375 C2.98859771 1.81886614 2.98859771 1.81886614 2 3 C-0.69235776 3.23678716 -3.36498156 3.42198025 -6.0625 3.5625 C-7.20041992 3.62727539 -7.20041992 3.62727539 -8.36132812 3.69335938 C-10.24065438 3.79973633 -12.12030244 3.90039934 -14 4 C-14 3.67 -14 3.34 -14 3 C-9.23692563 2.04738513 -4.8333472 1.91666643 0 2 C0 1.34 0 0.68 0 0 Z " fill="#6D6D6D" transform="translate(270,134)"/>
<path d="M0 0 C3.83797544 1.56361962 6.1667627 4.02510083 9 7 C9.763125 7.763125 10.52625 8.52625 11.3125 9.3125 C11.869375 9.869375 12.42625 10.42625 13 11 C10 11 10 11 7 9 C7 8.34 7 7.68 7 7 C6.401875 6.731875 5.80375 6.46375 5.1875 6.1875 C3.00152146 5.00082594 1.58667406 3.90400887 0 2 C0 1.34 0 0.68 0 0 Z " fill="#454545" transform="translate(138,468)"/>
<path d="M0 0 C3.58273331 1.65356922 6.80973467 3.67980703 10 6 C10 6.66 10 7.32 10 8 C12.475 8.99 12.475 8.99 15 10 C13.1875 10.6875 13.1875 10.6875 11 11 C9.4375 9.625 9.4375 9.625 8 8 C7.01 7.67 6.02 7.34 5 7 C3.61328125 5.37109375 3.61328125 5.37109375 2.3125 3.4375 C1.87550781 2.79683594 1.43851563 2.15617187 0.98828125 1.49609375 C0.49908203 0.75552734 0.49908203 0.75552734 0 0 Z " fill="#434343" transform="translate(190,426)"/>
<path d="M0 0 C8.37775061 6.84810513 8.37775061 6.84810513 11 11 C10.75 13.3125 10.75 13.3125 10 15 C10 14.01 10 13.02 10 12 C9.34 12 8.68 12 8 12 C8 11.34 8 10.68 8 10 C7.34 10 6.68 10 6 10 C4.97388051 8.34928604 3.97691857 6.68029994 3 5 C2.443125 4.443125 1.88625 3.88625 1.3125 3.3125 C0.879375 2.879375 0.44625 2.44625 0 2 C0 1.34 0 0.68 0 0 Z " fill="#3E3E3E" transform="translate(426,190)"/>
<path d="M0 0 C-2.10016623 1.17441535 -4.20458755 2.33964012 -6.3125 3.5 C-6.90740234 3.83386719 -7.50230469 4.16773438 -8.11523438 4.51171875 C-10.95828844 6.06825114 -12.70660988 7 -16 7 C-16 6.34 -16 5.68 -16 5 C-15.01 5 -14.02 5 -13 5 C-13 4.34 -13 3.68 -13 3 C-11.40084119 2.30093058 -9.79544955 1.61610532 -8.1875 0.9375 C-7.29417969 0.55464844 -6.40085938 0.17179688 -5.48046875 -0.22265625 C-3 -1 -3 -1 0 0 Z " fill="#444444" transform="translate(233,148)"/>
<path d="M0 0 C1.65 0 3.3 0 5 0 C4.0409375 0.1546875 4.0409375 0.1546875 3.0625 0.3125 C2.381875 0.539375 1.70125 0.76625 1 1 C0.67 1.99 0.34 2.98 0 4 C-4.33273814 4.92844389 -7.66726186 4.92844389 -12 4 C-12 3.67 -12 3.34 -12 3 C-6.06 2.505 -6.06 2.505 0 2 C0 1.34 0 0.68 0 0 Z " fill="#6B6B6B" transform="translate(362,523)"/>
<path d="M0 0 C5.45479185 0.56820748 9.91059256 1.94637945 15 4 C15 4.33 15 4.66 15 5 C11.7 4.67 8.4 4.34 5 4 C5 3.34 5 2.68 5 2 C3.35 1.67 1.7 1.34 0 1 C0 0.67 0 0.34 0 0 Z " fill="#585858" transform="translate(240,456)"/>
<path d="M0 0 C1 3 1 3 0 6 C-0.99 6.495 -0.99 6.495 -2 7 C-2.7425 8.2375 -2.7425 8.2375 -3.5 9.5 C-5 12 -5 12 -7 13 C-5.35821735 8.22390502 -2.73453298 4.20617096 0 0 Z " fill="#4F4F4F" transform="translate(105,169)"/>
<path d="M0 0 C0.33 0.66 0.66 1.32 1 2 C1.99 2.33 2.98 2.66 4 3 C5.69088222 4.97956942 7.35830472 6.97945196 9 9 C9.66 9.33 10.32 9.66 11 10 C11 10.66 11 11.32 11 12 C7.86989542 10.60807296 5.67663308 8.97357774 3.25 6.5625 C2.63640625 5.96566406 2.0228125 5.36882813 1.390625 4.75390625 C0 3 0 3 0 0 Z " fill="#3F3F3F" transform="translate(629,571)"/>
<path d="M0 0 C2.475 0.99 2.475 0.99 5 2 C5 2.66 5 3.32 5 4 C6.175625 4.4640625 6.175625 4.4640625 7.375 4.9375 C10 6 10 6 12 7 C12 7.66 12 8.32 12 9 C11.01 9 10.02 9 9 9 C9 8.34 9 7.68 9 7 C8.360625 6.896875 7.72125 6.79375 7.0625 6.6875 C6.381875 6.460625 5.70125 6.23375 5 6 C4.67 5.01 4.34 4.02 4 3 C1.98491642 2.26676204 1.98491642 2.26676204 0 2 C0 1.34 0 0.68 0 0 Z " fill="#515151" transform="translate(205,437)"/>
<path d="M0 0 C0.66 0.33 1.32 0.66 2 1 C-0.64 4.3 -3.28 7.6 -6 11 C-6.66 10.67 -7.32 10.34 -8 10 C-5.61820737 6.25718301 -3.25524265 3.02272532 0 0 Z " fill="#595959" transform="translate(173,189)"/>
<path d="M0 0 C1.32 0.33 2.64 0.66 4 1 C4 1.66 4 2.32 4 3 C4.99 3.33 5.98 3.66 7 4 C7 4.66 7 5.32 7 6 C7.66 6 8.32 6 9 6 C9.33 7.32 9.66 8.64 10 10 C2.51708428 3.84965831 2.51708428 3.84965831 0 0 Z " fill="#424242" transform="translate(686,630)"/>
<path d="M0 0 C3.63 0.66 7.26 1.32 11 2 C11 2.66 11 3.32 11 4 C12.32 4.33 13.64 4.66 15 5 C9.33895411 4.50341703 5.12325529 3.45489316 0 1 C0 0.67 0 0.34 0 0 Z " fill="#575757" transform="translate(203,513)"/>
<path d="M0 0 C0.66 0.33 1.32 0.66 2 1 C0.54634731 2.17249353 -0.91307419 3.33783816 -2.375 4.5 C-3.18710937 5.1496875 -3.99921875 5.799375 -4.8359375 6.46875 C-7 8 -7 8 -9 8 C-9 7.01 -9 6.02 -9 5 C-8.195625 4.71125 -7.39125 4.4225 -6.5625 4.125 C-3.8673532 3.26737432 -3.8673532 3.26737432 -3 1 C-2.01 0.67 -1.02 0.34 0 0 Z " fill="#9B9B9B" transform="translate(437,487)"/>
<path d="M0 0 C3.99231996 2.05011025 6.14080646 3.8684588 8 8 C7.67 8.99 7.34 9.98 7 11 C5.82750647 9.54634731 4.66216184 8.08692581 3.5 6.625 C2.52546875 5.40683594 2.52546875 5.40683594 1.53125 4.1640625 C0 2 0 2 0 0 Z " fill="#3F3F3F" transform="translate(106,431)"/>
<path d="M0 0 C1.9375 0.75 1.9375 0.75 4 2 C4.75 4.125 4.75 4.125 5 6 C5.66 6 6.32 6 7 6 C7.33 7.65 7.66 9.3 8 11 C4.31993178 7.61831569 2.0214155 4.57478244 0 0 Z " fill="#454545" transform="translate(98,419)"/>
<path d="M0 0 C0.99 0.495 0.99 0.495 2 1 C2 1.66 2 2.32 2 3 C2.66 3 3.32 3 4 3 C4 3.66 4 4.32 4 5 C4.9590625 5.433125 4.9590625 5.433125 5.9375 5.875 C8 7 8 7 9 9 C4.74822077 8.52758009 2.70030797 6.15035929 0 3 C0 2.01 0 1.02 0 0 Z " fill="#333333" transform="translate(711,653)"/>
<path d="M0 0 C0.66 0.33 1.32 0.66 2 1 C-0.31 3.64 -2.62 6.28 -5 9 C-6.32 8.67 -7.64 8.34 -9 8 C-5.25 5 -5.25 5 -3 5 C-2.690625 4.360625 -2.38125 3.72125 -2.0625 3.0625 C-1 1 -1 1 0 0 Z " fill="#323232" transform="translate(419,416)"/>
<path d="M0 0 C-6.75 4 -6.75 4 -9 4 C-9 4.66 -9 5.32 -9 6 C-9.99 5.67 -10.98 5.34 -12 5 C-4.5 -1.5 -4.5 -1.5 0 0 Z " fill="#4C4C4C" transform="translate(217,156)"/>
<path d="M0 0 C0.99 0.33 1.98 0.66 3 1 C1.68 3.64 0.36 6.28 -1 9 C-1.66 8.67 -2.32 8.34 -3 8 C-1.125 2.25 -1.125 2.25 0 0 Z " fill="#777777" transform="translate(444,382)"/>
<path d="M0 0 C0.66 0 1.32 0 2 0 C2.50367757 1.45706726 3.00282556 2.91570096 3.5 4.375 C3.91765625 5.59316406 3.91765625 5.59316406 4.34375 6.8359375 C5 9 5 9 5 11 C4.34 11 3.68 11 3 11 C2.49384702 9.73160474 1.99530901 8.46016898 1.5 7.1875 C1.2215625 6.47980469 0.943125 5.77210938 0.65625 5.04296875 C0 3 0 3 0 0 Z " fill="#454545" transform="translate(76,369)"/>
<path d="M0 0 C0.99 0.33 1.98 0.66 3 1 C3.33 4.96 3.66 8.92 4 13 C1.99706653 9.99559979 1.50728374 8.29006055 0.875 4.8125 C0.70742187 3.91144531 0.53984375 3.01039063 0.3671875 2.08203125 C0.24601562 1.39496094 0.12484375 0.70789063 0 0 Z " fill="#2A2A2A" transform="translate(69,343)"/>
<path d="M0 0 C0.99 0 1.98 0 3 0 C3 1.65 3 3.3 3 5 C2.34 5 1.68 5 1 5 C1 6.98 1 8.96 1 11 C0.67 11 0.34 11 0 11 C0 7.37 0 3.74 0 0 Z " fill="#8F8F8F" transform="translate(139,245)"/>
<path d="M0 0 C1.65 0 3.3 0 5 0 C0.375 4.875 0.375 4.875 -3 6 C-2 4 -1 2 0 0 Z " fill="#666666" transform="translate(195,166)"/>
<path d="M0 0 C0.66 0.33 1.32 0.66 2 1 C1.04956626 2.33897583 0.08940853 3.67105427 -0.875 5 C-1.40867187 5.7425 -1.94234375 6.485 -2.4921875 7.25 C-3.23855469 8.11625 -3.23855469 8.11625 -4 9 C-4.66 9 -5.32 9 -6 9 C-4.47291037 5.56404834 -2.40072955 2.88087546 0 0 Z " fill="#363636" transform="translate(122,146)"/>
<path d="M0 0 C1.75 0.125 1.75 0.125 4 1 C6.25 4.0625 6.25 4.0625 8 7 C4.2047869 5.50902342 2.38957269 3.24299151 0 0 Z " fill="#393939" transform="translate(130,461)"/>
<path d="M0 0 C0.66 0 1.32 0 2 0 C0.90931332 3.77545388 0.0916909 6.47043472 -3 9 C-2.67 7.02 -2.34 5.04 -2 3 C-1.34 3 -0.68 3 0 3 C0 2.01 0 1.02 0 0 Z " fill="#525252" transform="translate(153,217)"/>
<path d="M0 0 C2.97 1.65 5.94 3.3 9 5 C8.01 5.33 7.02 5.66 6 6 C2.8125 4.1875 2.8125 4.1875 0 2 C0 1.34 0 0.68 0 0 Z " fill="#383838" transform="translate(419,98)"/>
</svg>
